<svg id="svg" xmlns="http://www.w3.org/2000/svg" xmlns:xlink="http://www.w3.org/1999/xlink" width="500" height="484.34237995824634" viewBox="0, 0, 500,484.34237995824634"><g id="svgg"><path id="path0" d="M172.587 1.540 C 171.356 2.402,170.071 4.815,169.668 7.020 C 169.272 9.187,168.267 12.017,167.435 13.309 C 166.591 14.620,166.394 15.658,166.991 15.658 C 169.131 15.658,167.981 17.732,164.979 19.284 C 159.938 21.891,158.947 21.347,156.499 14.631 C 153.015 5.077,147.183 3.574,137.768 9.805 C 132.789 13.100,132.791 13.070,136.743 25.409 C 140.614 37.493,140.741 36.534,135.266 36.534 C 124.814 36.534,119.806 47.253,125.346 57.764 C 128.926 64.556,128.760 65.309,123.770 64.879 C 121.863 64.715,118.557 65.310,116.423 66.202 L 112.542 67.824 112.899 75.804 L 113.257 83.785 109.081 85.221 C 103.250 87.225,101.231 90.013,101.355 95.888 L 101.458 100.731 102.660 96.553 C 104.289 90.891,104.938 90.063,109.601 87.684 L 113.633 85.627 114.279 91.613 C 115.457 102.506,117.133 111.954,119.122 118.910 C 121.979 128.900,121.924 129.084,115.677 130.423 C 112.702 131.061,109.580 132.157,108.740 132.858 C 107.900 133.560,104.814 135.102,101.884 136.286 C 96.182 138.589,95.107 140.191,98.904 140.730 C 101.209 141.058,101.253 141.330,101.254 155.344 C 101.256 181.369,107.160 221.282,118.344 270.877 C 121.970 286.952,124.554 300.256,124.088 300.441 C 123.622 300.626,119.586 300.040,115.117 299.139 C 77.063 291.464,48.440 292.859,36.947 302.950 C 33.332 306.124,32.803 306.265,25.496 305.993 C 4.188 305.199,-7.348 325.207,3.945 343.373 C 7.167 348.557,7.223 348.856,6.312 356.108 C 2.799 384.089,17.832 399.878,77.203 430.562 C 100.334 442.518,103.788 444.472,99.687 443.290 C 93.546 441.519,91.347 441.287,92.511 442.532 C 93.157 443.224,102.315 445.910,112.862 448.502 C 123.409 451.095,132.276 453.597,132.564 454.063 C 132.853 454.529,135.438 455.250,138.309 455.666 C 141.180 456.082,144.156 456.924,144.923 457.537 C 145.691 458.150,148.274 458.972,150.664 459.362 C 154.682 460.019,154.498 460.088,148.225 460.277 C 138.834 460.559,143.093 462.251,153.445 462.350 C 157.751 462.391,165.266 463.168,170.146 464.077 C 175.026 464.986,181.133 465.855,183.716 466.009 C 190.717 466.424,197.315 467.793,196.748 468.712 C 196.472 469.157,198.477 470.026,201.203 470.642 C 222.103 475.365,251.542 478.738,261.482 477.549 C 267.355 476.847,268.175 476.547,265.658 476.025 C 262.922 475.456,263.243 475.285,268.204 474.665 C 279.783 473.218,296.703 460.634,302.593 449.089 C 304.459 445.432,305.220 444.903,309.447 444.323 C 318.964 443.019,327.284 435.906,329.487 427.192 C 329.982 425.233,330.798 424.841,334.403 424.829 C 342.353 424.803,344.720 423.343,337.764 422.756 C 329.930 422.094,328.404 419.652,335.769 419.564 C 345.964 419.443,350.140 417.790,340.590 417.657 C 333.043 417.551,331.876 417.276,330.854 415.367 C 328.441 410.859,329.955 410.237,342.078 410.759 C 361.535 411.597,397.499 411.975,390.397 411.266 C 383.718 410.601,383.694 410.587,388.831 410.394 C 391.701 410.286,394.755 409.718,395.616 409.131 C 396.722 408.377,395.957 408.304,393.006 408.880 C 390.710 409.329,375.346 409.658,358.864 409.610 L 328.896 409.524 326.855 407.006 C 325.733 405.621,324.891 404.466,324.985 404.439 C 325.080 404.411,328.680 404.688,332.985 405.053 C 340.130 405.659,340.358 405.744,335.595 406.032 L 330.376 406.348 336.117 407.142 C 344.876 408.353,381.843 408.316,379.958 407.098 C 378.894 406.410,382.028 406.081,389.742 406.070 C 399.712 406.056,400.933 406.244,399.791 407.620 C 398.202 409.535,398.138 409.534,406.250 407.678 C 409.874 406.849,418.693 405.642,425.847 404.994 C 433.001 404.347,439.107 403.661,439.417 403.471 C 439.726 403.280,444.676 402.584,450.418 401.924 C 469.508 399.730,477.699 393.264,478.000 380.151 C 478.119 374.951,479.739 372.846,484.621 371.546 C 492.661 369.405,495.387 364.345,489.823 361.889 C 483.051 358.901,477.895 354.802,478.656 353.012 C 479.068 352.044,479.694 349.759,480.047 347.934 L 480.689 344.615 486.313 346.602 C 493.069 348.989,493.737 348.691,493.737 343.294 C 493.737 337.967,492.486 335.549,487.056 330.376 C 481.420 325.006,480.922 313.962,486.257 312.651 C 498.228 309.710,495.848 299.209,482.621 296.606 L 476.269 295.357 477.943 290.699 L 479.618 286.042 485.923 292.290 C 497.262 303.528,502.692 299.216,498.719 282.129 C 497.558 277.135,495.849 274.664,495.809 277.923 C 495.798 278.826,495.500 278.765,494.841 277.724 C 494.056 276.483,493.196 276.434,489.914 277.441 C 485.111 278.915,484.277 278.252,481.910 271.081 C 480.348 266.349,480.358 266.100,482.091 266.650 C 484.308 267.353,487.487 259.594,487.479 253.502 C 487.467 244.544,480.588 228.213,472.430 217.776 C 469.796 214.406,467.641 211.076,467.641 210.376 C 467.641 209.676,466.492 208.580,465.087 207.940 C 463.683 207.300,460.747 205.193,458.563 203.257 C 456.380 201.322,451.305 197.462,447.286 194.679 C 443.267 191.897,438.726 188.475,437.193 187.076 C 435.661 185.677,434.017 184.772,433.540 185.066 C 433.063 185.359,430.793 184.474,428.497 183.099 C 426.200 181.724,423.852 180.434,423.278 180.233 C 396.555 170.882,380.700 168.693,357.663 171.174 C 350.931 171.899,345.193 172.263,344.912 171.983 C 344.632 171.702,345.744 160.488,347.384 147.062 C 349.591 128.987,350.087 121.974,349.293 120.042 C 347.803 116.416,347.855 116.446,345.863 118.066 C 344.319 119.323,344.166 119.307,344.731 117.954 C 351.981 100.603,351.887 100.918,350.301 99.331 C 348.631 97.662,350.608 91.858,352.845 91.858 C 354.628 91.858,353.946 86.894,352.064 86.172 C 350.600 85.610,351.575 84.229,357.306 78.746 C 365.531 70.877,365.417 68.450,356.582 63.272 C 349.474 59.107,346.305 59.830,335.977 67.974 C 332.560 70.668,332.046 70.799,330.801 69.299 C 330.040 68.382,328.283 67.201,326.897 66.674 C 324.596 65.799,324.440 65.329,325.112 61.302 C 329.192 36.869,328.779 32.981,321.884 30.885 C 317.047 29.414,311.089 34.931,311.049 40.919 C 311.031 43.624,309.021 47.586,308.993 44.972 C 308.952 41.200,307.600 45.801,304.839 59.109 C 298.858 87.936,295.184 98.851,292.774 94.951 C 291.655 93.141,290.032 93.898,290.677 95.928 C 292.373 101.274,283.634 103.764,279.247 99.185 L 276.266 96.074 280.062 94.488 C 282.150 93.616,284.781 92.902,285.909 92.902 C 287.037 92.902,288.185 92.080,288.461 91.075 C 289.703 86.546,291.416 77.635,293.829 63.152 C 295.264 54.541,297.182 44.381,298.092 40.575 C 299.904 32.990,299.779 28.059,297.756 27.394 C 296.856 27.099,296.451 28.279,296.451 31.196 C 296.451 33.523,295.042 41.874,293.319 49.754 C 291.597 57.634,290.188 64.224,290.188 64.400 C 290.188 65.589,286.688 64.301,284.272 62.223 C 281.404 59.756,281.386 59.661,282.594 53.612 C 283.266 50.247,284.126 43.502,284.506 38.622 C 285.270 28.799,287.120 24.552,290.277 25.378 C 293.361 26.184,292.640 24.095,289.410 22.867 C 284.718 21.083,280.124 23.907,278.705 29.447 C 276.892 36.528,276.235 37.438,275.848 33.403 C 274.047 14.609,271.598 8.025,265.990 6.904 C 262.908 6.287,254.732 8.016,254.665 9.299 C 254.647 9.639,254.431 12.836,254.185 16.405 C 253.939 19.974,254.189 23.172,254.740 23.513 C 256.793 24.782,255.931 33.403,253.751 33.403 C 252.227 33.403,251.899 32.876,252.350 31.152 C 252.722 29.729,252.536 29.150,251.844 29.577 C 250.575 30.362,242.538 54.974,241.623 60.880 C 241.080 64.379,240.800 64.702,239.349 63.498 C 237.911 62.304,237.784 62.408,238.382 64.290 C 239.472 67.724,235.817 70.365,231.046 69.591 C 223.605 68.383,222.696 64.727,229.165 62.024 C 232.460 60.647,232.634 60.287,233.272 53.519 C 235.946 25.150,242.397 10.258,249.679 15.641 C 253.669 18.591,254.665 17.619,251.202 14.155 C 246.161 9.114,239.622 11.852,236.370 20.366 C 234.747 24.617,234.259 25.052,231.118 25.052 C 227.464 25.052,222.338 26.929,222.338 28.267 C 222.338 28.703,224.026 28.593,226.090 28.023 C 228.153 27.454,230.106 27.253,230.430 27.576 C 231.007 28.154,229.263 49.144,228.211 54.280 C 227.917 55.715,227.497 57.764,227.278 58.833 C 227.058 59.903,226.087 61.220,225.120 61.761 C 224.153 62.303,222.686 64.364,221.860 66.341 C 221.033 68.319,219.981 69.937,219.521 69.937 C 218.486 69.938,218.557 62.439,219.607 60.739 C 220.038 60.042,219.820 59.499,219.110 59.499 C 217.571 59.499,218.426 35.582,220.123 31.124 C 220.900 29.085,220.856 28.211,219.962 27.914 C 219.173 27.651,218.539 23.576,218.188 16.518 C 217.546 3.624,216.711 2.088,210.347 2.088 C 204.001 2.088,195.648 8.863,194.640 14.828 C 194.013 18.542,193.689 18.899,191.456 18.338 C 189.081 17.742,188.992 17.911,189.441 22.166 C 190.829 35.312,191.062 55.780,189.809 54.527 C 188.882 53.600,188.438 46.968,188.239 31.054 C 188.070 17.593,188.317 9.899,188.866 11.482 C 189.640 13.714,189.786 13.407,189.875 9.366 C 190.066 0.716,180.164 -3.767,172.587 1.540 M183.820 6.263 C 184.209 8.272,184.749 18.137,185.018 28.184 L 185.507 46.451 181.367 49.843 C 178.163 52.470,176.251 53.232,172.904 53.220 C 164.763 53.190,164.517 51.387,172.125 47.520 C 174.346 46.391,175.219 45.440,174.464 44.973 C 172.025 43.466,170.711 10.050,172.827 3.335 C 173.917 -0.122,183.053 2.311,183.820 6.263 M210.173 12.787 C 210.542 17.523,210.846 29.013,210.850 38.320 C 210.853 47.627,211.371 59.972,211.999 65.753 C 213.153 76.353,212.593 82.138,210.837 77.766 C 210.376 76.618,209.667 72.564,209.261 68.757 C 208.401 60.693,208.203 60.294,204.100 58.355 C 200.198 56.511,199.864 54.632,198.968 29.509 L 198.290 10.480 202.642 7.328 C 209.014 2.712,209.411 3.000,210.173 12.787 M267.240 16.441 C 267.986 20.890,269.226 25.457,269.997 26.589 C 271.577 28.911,272.026 58.982,270.516 61.362 C 269.451 63.040,259.932 53.234,259.886 50.410 C 259.869 49.381,259.174 41.962,258.342 33.925 C 256.043 11.729,256.101 10.960,260.177 9.652 C 265.718 7.875,265.821 7.974,267.240 16.441 M149.082 14.875 C 154.806 30.178,165.210 76.265,163.358 78.117 C 163.027 78.448,162.489 77.698,162.163 76.449 C 161.837 75.201,160.442 72.169,159.063 69.710 C 150.856 55.074,144.751 41.538,140.782 29.184 C 135.346 12.261,135.422 13.725,139.858 11.345 C 145.568 8.283,146.791 8.751,149.082 14.875 M216.795 27.923 C 216.532 28.927,216.317 28.105,216.317 26.096 C 216.317 24.087,216.532 23.265,216.795 24.269 C 217.057 25.274,217.057 26.918,216.795 27.923 M167.094 26.569 C 167.624 26.241,168.058 27.879,168.058 30.210 C 168.058 32.540,167.703 34.447,167.269 34.447 C 165.706 34.447,163.725 28.238,164.529 25.858 C 165.198 23.877,165.395 23.789,165.729 25.326 C 165.949 26.338,166.563 26.897,167.094 26.569 M315.071 41.754 C 312.390 61.147,309.537 70.845,307.201 68.509 C 306.792 68.101,313.863 36.875,314.653 35.595 C 315.973 33.461,316.053 34.648,315.071 41.754 M324.076 45.951 C 324.024 61.510,323.253 64.530,318.865 66.363 C 314.698 68.104,313.852 68.207,314.678 66.871 C 315.011 66.333,316.015 60.578,316.909 54.084 C 317.804 47.589,318.969 41.829,319.498 41.284 C 320.026 40.739,320.459 38.943,320.459 37.293 C 320.459 34.996,320.887 34.378,322.286 34.653 C 323.890 34.969,324.108 36.349,324.076 45.951 M254.697 39.735 C 254.697 40.346,254.237 41.706,253.675 42.757 C 252.933 44.144,253.076 45.016,254.197 45.947 C 256.224 47.630,256.175 50.104,254.114 50.104 C 253.090 50.104,252.777 50.588,253.270 51.409 C 253.777 52.253,253.413 52.193,252.241 51.242 C 251.160 50.365,250.704 49.099,251.113 48.110 C 251.490 47.198,251.908 45.277,252.041 43.841 C 252.490 39.002,252.607 38.622,253.653 38.622 C 254.228 38.622,254.697 39.123,254.697 39.735 M133.747 40.782 C 138.478 43.314,160.752 82.227,160.752 87.960 C 160.752 90.130,160.723 90.133,159.154 88.143 C 157.611 86.186,157.566 86.206,157.849 88.727 C 158.449 94.072,154.003 92.654,150.672 86.438 C 148.395 82.187,147.067 80.824,144.968 80.580 C 142.650 80.312,141.229 78.403,135.645 68.054 C 132.022 61.340,127.905 54.083,126.497 51.929 L 123.937 48.012 126.828 43.839 C 129.942 39.345,130.556 39.074,133.747 40.782 M188.443 73.085 C 192.209 94.014,193.274 105.676,189.919 89.248 C 188.863 84.081,186.611 74.455,184.914 67.856 C 182.676 59.158,182.110 55.329,182.856 53.936 C 184.419 51.016,184.557 51.490,188.443 73.085 M178.161 56.628 C 179.381 58.543,183.257 74.692,186.366 90.814 C 188.592 102.354,193.174 122.924,195.783 133.090 C 196.077 134.239,195.520 133.769,194.542 132.046 C 193.545 130.287,192.577 129.481,192.334 130.207 C 191.898 131.508,182.687 136.062,181.960 135.335 C 178.601 131.976,166.024 71.668,165.982 58.716 L 165.971 55.324 171.650 55.324 C 175.055 55.324,177.663 55.846,178.161 56.628 M205.898 61.236 C 207.139 61.987,206.806 68.678,205.505 69.111 C 204.634 69.402,204.634 71.763,205.505 78.237 C 207.417 92.443,207.150 95.678,203.890 97.814 C 201.845 99.154,200.984 99.300,200.671 98.360 C 200.436 97.654,199.578 97.077,198.765 97.077 C 197.838 97.077,197.286 95.977,197.286 94.128 C 197.286 92.506,195.847 86.370,194.089 80.493 C 192.331 74.616,191.093 69.249,191.339 68.568 C 191.584 67.886,191.405 66.586,190.941 65.680 C 190.406 64.635,190.824 62.837,192.084 60.766 L 194.071 57.499 199.593 59.131 C 202.630 60.028,205.467 60.976,205.898 61.236 M263.429 59.789 C 264.432 60.522,265.357 61.814,265.484 62.659 C 265.612 63.505,266.090 64.795,266.547 65.527 C 267.732 67.423,257.179 100.767,253.586 106.481 C 251.959 109.070,250.339 113.298,249.987 115.876 C 249.635 118.454,249.074 121.738,248.741 123.173 L 248.135 125.783 247.345 123.173 C 246.558 120.576,246.554 120.578,246.451 123.562 C 246.300 127.908,243.215 125.126,243.215 120.645 C 243.215 118.820,242.674 116.786,242.012 116.125 C 241.302 115.415,240.449 108.586,239.933 99.475 C 239.451 90.980,238.781 81.182,238.443 77.702 C 237.566 68.645,240.394 66.014,242.081 74.317 C 243.008 78.878,245.164 99.533,245.329 105.428 C 245.359 106.533,245.976 106.269,247.425 104.529 C 249.880 101.583,250.035 100.209,247.912 100.209 C 245.137 100.209,246.036 90.260,250.083 76.206 C 255.087 58.823,255.058 58.871,258.827 61.554 C 262.898 64.453,263.923 64.218,260.960 61.065 C 258.277 58.209,260.029 57.303,263.429 59.789 M283.822 64.143 C 291.913 68.327,289.055 80.985,277.230 93.333 C 274.982 95.679,272.003 100.183,270.608 103.340 C 269.213 106.498,267.071 111.195,265.847 113.779 C 264.623 116.362,263.610 119.188,263.596 120.059 C 263.558 122.392,259.357 127.349,257.418 127.349 C 254.914 127.349,255.386 125.711,258.612 123.206 C 261.320 121.103,261.344 121.016,259.031 121.656 C 256.522 122.351,256.482 119.128,258.965 116.465 C 259.473 115.921,259.452 114.999,258.919 114.356 C 257.578 112.741,272.012 72.108,274.980 69.139 C 275.161 68.959,277.552 70.004,280.294 71.462 C 285.569 74.267,288.100 74.788,288.100 73.069 C 288.100 72.495,287.505 72.025,286.777 72.025 C 284.216 72.025,277.662 66.744,277.662 64.681 C 277.662 62.241,279.786 62.056,283.822 64.143 M357.351 65.648 C 360.664 68.500,361.550 70.981,359.257 70.981 C 358.100 70.981,356.128 69.255,354.532 66.842 C 351.659 62.500,353.025 61.922,357.351 65.648 M350.731 65.687 C 350.731 66.221,351.540 67.466,352.530 68.456 C 354.474 70.400,343.649 81.841,340.874 80.776 C 339.322 80.181,333.611 86.161,334.444 87.509 C 334.798 88.082,334.012 89.881,332.698 91.509 C 331.383 93.136,329.149 96.226,327.732 98.375 C 324.070 103.930,322.838 103.243,326.193 97.517 C 327.734 94.889,328.722 92.466,328.389 92.133 C 328.056 91.800,328.331 90.870,328.998 90.066 C 329.666 89.261,330.337 87.430,330.490 85.997 C 331.394 77.512,350.731 58.110,350.731 65.687 M129.197 74.300 L 132.612 81.272 130.567 85.260 C 128.951 88.412,128.696 90.169,129.353 93.642 C 130.094 97.561,129.901 98.293,127.555 100.427 C 125.768 102.053,125.116 102.287,125.519 101.158 C 125.845 100.245,125.727 98.875,125.256 98.114 C 124.786 97.352,124.818 95.633,125.327 94.294 C 126.038 92.424,125.895 91.858,124.713 91.858 C 123.866 91.858,123.173 91.170,123.173 90.329 C 123.173 89.487,121.687 87.106,119.870 85.037 C 116.775 81.512,113.069 71.358,114.387 70.013 C 115.553 68.823,121.656 66.931,123.695 67.127 C 125.151 67.267,126.816 69.438,129.197 74.300 M328.549 71.319 C 331.497 73.972,331.604 75.608,328.728 74.069 C 327.535 73.431,325.774 73.214,324.814 73.588 C 323.437 74.125,323.784 74.572,326.461 75.706 C 330.821 77.553,331.203 76.037,321.205 96.555 C 310.880 117.744,311.371 116.910,309.229 116.910 C 307.896 116.910,307.794 116.632,308.768 115.658 C 310.831 113.595,310.294 109.479,307.880 108.848 C 306.132 108.391,305.860 107.738,306.397 105.292 C 306.897 103.019,306.673 102.296,305.468 102.296 C 301.498 102.296,302.430 97.736,309.200 84.029 C 317.129 67.975,321.584 65.049,328.549 71.319 M230.443 71.762 C 237.830 73.363,241.485 127.831,236.018 154.828 C 234.432 162.661,233.198 166.666,232.642 165.788 C 232.069 164.884,231.759 165.641,231.749 167.971 C 231.690 180.972,228.053 147.525,226.592 120.564 C 224.055 73.725,224.018 69.551,226.146 70.441 C 227.209 70.886,229.143 71.480,230.443 71.762 M345.889 73.591 C 345.559 74.452,344.634 75.157,343.834 75.157 C 343.034 75.157,342.380 75.643,342.380 76.237 C 342.380 77.589,345.632 75.961,347.552 73.648 C 348.501 72.504,348.543 72.025,347.694 72.025 C 347.032 72.025,346.219 72.730,345.889 73.591 M320.691 81.681 C 320.104 82.398,318.436 85.918,316.986 89.503 C 315.535 93.087,313.374 97.387,312.184 99.058 C 310.994 100.730,310.021 103.374,310.021 104.934 C 310.021 109.762,312.568 106.287,317.157 95.200 C 322.830 81.494,323.763 77.926,320.691 81.681 M347.106 85.018 C 350.284 86.346,350.608 86.819,349.786 88.932 C 349.272 90.254,346.667 96.973,343.997 103.862 C 338.113 119.049,337.974 119.213,331.918 118.150 C 326.092 117.128,326.104 116.032,332.114 99.997 C 334.417 93.852,335.997 88.333,335.625 87.732 C 335.254 87.131,335.625 86.639,336.449 86.639 C 337.274 86.639,338.534 85.934,339.248 85.073 C 340.873 83.116,342.526 83.104,347.106 85.018 M147.443 87.801 C 148.829 89.472,149.271 91.922,149.275 97.976 C 149.278 102.362,149.738 107.594,150.296 109.603 C 151.531 114.049,156.817 146.529,156.981 150.679 C 157.212 156.540,176.980 169.098,194.676 174.626 C 241.791 189.345,282.438 171.694,304.421 126.971 L 308.455 118.764 322.025 119.530 C 329.489 119.951,337.944 120.591,340.814 120.952 L 346.033 121.608 345.895 127.013 C 345.701 134.625,339.858 173.315,339.381 170.146 C 339.014 167.709,338.929 167.674,338.095 169.624 C 337.228 171.649,337.583 165.896,338.820 157.881 C 339.108 156.015,338.913 154.489,338.387 154.489 C 337.238 154.489,335.734 168.338,336.589 171.034 C 337.330 173.367,334.751 174.760,318.909 180.587 C 312.602 182.906,303.359 187.125,298.370 189.962 C 293.381 192.799,288.090 195.423,286.612 195.794 C 285.134 196.165,283.925 196.776,283.925 197.151 C 283.925 197.526,280.623 201.350,276.588 205.649 C 260.365 222.931,255.431 233.772,257.661 247.233 L 258.774 253.952 255.549 256.965 C 252.369 259.935,252.079 262.523,255.218 259.918 C 256.567 258.798,256.731 258.842,256.215 260.186 C 255.876 261.071,256.323 264.235,257.208 267.217 C 259.914 276.327,256.634 281.932,250.177 279.234 C 246.676 277.771,246.443 277.803,245.802 279.821 C 244.979 282.414,243.057 281.987,241.663 278.899 C 241.096 277.644,240.274 276.618,239.836 276.618 C 238.621 276.618,238.887 280.576,240.155 281.359 C 240.768 281.738,241.012 282.719,240.697 283.540 C 240.262 284.675,240.962 284.975,243.628 284.795 C 245.790 284.650,247.807 285.236,248.899 286.328 C 251.597 289.027,254.762 289.399,259.818 287.614 C 265.087 285.754,266.793 286.117,262.038 288.086 C 258.146 289.699,257.787 291.593,261.652 290.123 C 263.548 289.403,264.776 289.411,265.514 290.149 C 266.680 291.315,266.535 291.370,261.174 291.813 C 256.711 292.182,252.493 294.933,253.273 296.966 C 253.614 297.853,253.151 298.797,252.196 299.163 C 251.275 299.517,250.522 300.253,250.522 300.800 C 250.522 301.346,251.071 301.454,251.743 301.039 C 252.564 300.531,252.746 300.853,252.298 302.021 C 251.931 302.976,252.118 303.758,252.713 303.758 C 253.319 303.758,253.503 304.675,253.132 305.846 C 252.661 307.327,252.944 307.933,254.105 307.933 C 255.005 307.933,255.741 308.497,255.741 309.186 C 255.741 309.964,256.092 310.063,256.665 309.447 C 257.174 308.901,257.255 305.962,256.845 302.916 C 256.220 298.267,256.388 297.222,257.888 296.419 C 259.266 295.682,259.643 295.874,259.535 297.262 C 259.258 300.809,277.126 299.536,303.694 294.115 C 311.394 292.544,314.705 292.237,314.983 293.069 C 315.198 293.716,316.167 294.002,317.134 293.704 C 318.712 293.218,318.721 293.274,317.219 294.251 C 314.548 295.989,281.592 305.670,274.343 306.847 C 262.443 308.778,260.297 308.447,259.389 304.541 C 258.835 302.161,258.459 301.705,258.130 303.015 C 257.872 304.042,258.378 306.990,259.256 309.565 C 260.768 314.004,260.746 314.313,258.818 315.517 C 256.080 317.226,256.213 318.751,258.971 317.275 C 260.962 316.210,261.092 316.324,260.420 318.543 C 259.503 321.573,260.216 320.987,248.693 328.170 C 238.339 334.624,237.931 334.680,229.123 330.900 C 227.975 330.407,225.261 329.712,223.092 329.354 C 220.586 328.941,219.409 328.283,219.863 327.549 C 220.336 326.784,219.816 326.592,218.327 326.982 C 217.090 327.305,215.839 327.185,215.549 326.715 C 215.258 326.245,213.212 325.555,211.001 325.181 C 207.513 324.592,207.019 324.166,207.261 321.959 C 207.588 318.987,206.950 318.821,203.770 321.048 C 201.505 322.635,199.383 322.501,194.676 320.472 C 193.528 319.977,187.422 318.103,181.106 316.306 C 174.791 314.509,166.447 312.104,162.563 310.960 L 155.503 308.880 150.426 298.751 C 140.881 279.707,133.531 260.860,127.453 239.843 C 121.635 219.725,108.406 162.548,109.012 160.136 C 109.341 158.822,109.138 157.456,108.561 157.099 C 106.398 155.762,109.546 152.404,113.033 152.327 C 114.878 152.287,117.328 151.814,118.476 151.275 C 120.723 150.222,111.745 151.001,108.854 152.111 C 107.732 152.541,107.413 152.035,107.650 150.200 C 107.828 148.827,107.606 147.113,107.156 146.391 C 106.657 145.590,106.974 144.836,107.971 144.453 C 110.051 143.655,110.096 141.962,108.038 141.962 C 102.519 141.962,108.723 139.750,122.390 136.843 C 131.146 134.981,139.305 133.215,140.522 132.917 C 142.288 132.486,142.971 133.053,143.902 135.723 C 145.448 140.157,145.060 140.552,138.339 141.392 C 135.183 141.786,132.331 142.545,132.001 143.079 C 131.255 144.286,131.570 144.281,139.720 142.959 C 144.653 142.158,146.730 142.198,147.835 143.115 C 150.306 145.166,150.464 143.567,148.267 138.725 C 147.121 136.200,146.173 132.165,146.161 129.759 C 146.148 127.353,145.668 125.094,145.094 124.739 C 144.520 124.384,144.050 125.061,144.050 126.243 C 144.050 127.829,143.379 128.392,141.490 128.392 C 138.278 128.392,137.007 124.425,136.055 111.430 C 135.688 106.407,134.987 102.296,134.499 102.296 C 131.763 102.296,133.616 86.811,136.482 85.726 C 140.409 84.238,145.245 85.154,147.443 87.801 M214.398 89.334 C 215.378 91.887,215.165 92.225,213.466 90.814 C 211.730 89.374,211.388 87.683,212.832 87.683 C 213.345 87.683,214.049 88.426,214.398 89.334 M163.568 94.566 C 163.778 95.194,161.820 96.838,159.219 98.218 C 153.690 101.151,153.049 102.564,157.874 101.180 C 164.301 99.337,164.496 99.511,169.055 111.173 C 174.574 125.288,175.655 130.761,173.390 133.127 C 171.835 134.751,171.903 134.834,174.322 134.255 C 175.757 133.912,176.344 133.901,175.626 134.230 C 174.909 134.560,174.322 135.691,174.322 136.743 C 174.322 137.796,173.734 138.867,173.017 139.123 C 172.299 139.379,172.061 139.964,172.488 140.421 C 172.915 140.879,174.207 140.401,175.359 139.359 C 177.552 137.374,177.861 137.946,176.483 141.441 C 175.538 143.837,177.614 150.623,180.032 153.041 C 183.093 156.102,180.867 163.883,176.929 163.883 C 174.353 163.883,171.173 160.147,172.532 158.718 C 173.548 157.650,173.333 157.526,171.451 158.095 C 169.141 158.793,168.597 158.043,169.024 154.749 C 169.118 154.032,168.646 153.445,167.976 153.445 C 167.134 153.445,167.200 152.902,168.192 151.683 C 169.457 150.128,169.394 150.009,167.650 150.664 C 166.039 151.268,165.899 151.135,166.894 149.937 C 167.842 148.794,167.763 148.336,166.537 147.865 C 165.634 147.519,165.225 146.575,165.578 145.655 C 165.917 144.772,165.716 144.050,165.131 144.050 C 163.660 144.050,164.117 141.906,166.232 138.887 C 168.466 135.696,167.705 134.751,164.927 137.265 C 162.087 139.835,162.155 139.961,156.928 122.433 C 150.879 102.147,150.431 98.897,153.340 96.394 C 157.073 93.182,162.769 92.164,163.568 94.566 M280.510 104.384 C 283.111 104.384,282.571 106.931,275.501 127.985 C 271.474 139.978,267.446 153.314,266.551 157.620 C 264.847 165.814,262.104 170.146,258.620 170.146 C 257.233 170.146,256.802 169.602,257.173 168.319 C 257.464 167.315,258.239 162.735,258.895 158.142 C 262.036 136.165,266.920 116.706,272.612 103.491 L 274.700 98.643 277.003 101.514 C 278.270 103.092,279.848 104.384,280.510 104.384 M218.007 102.749 C 218.634 106.056,215.280 107.507,206.742 107.623 C 199.945 107.715,199.358 107.859,202.505 108.667 C 204.515 109.182,208.488 109.487,211.334 109.343 L 216.509 109.081 218.973 117.432 C 220.767 123.510,221.848 131.324,222.947 146.138 C 223.777 157.333,224.738 168.019,225.082 169.885 C 225.482 172.056,225.288 173.278,224.544 173.278 C 223.905 173.278,223.344 172.691,223.297 171.973 C 223.251 171.255,222.642 171.954,221.946 173.525 L 220.679 176.383 218.157 170.655 C 216.770 167.504,215.264 164.927,214.811 164.927 C 214.358 164.927,213.987 164.114,213.987 163.121 C 213.987 162.127,212.324 158.620,210.291 155.326 C 206.892 149.819,206.389 147.906,204.043 131.534 C 202.639 121.743,200.745 112.291,199.835 110.529 C 197.577 106.163,198.326 104.935,204.783 102.425 C 211.683 99.743,217.463 99.885,218.007 102.749 M130.494 105.993 C 131.879 110.187,131.294 112.735,128.947 112.735 C 127.874 112.735,127.349 111.726,127.349 109.665 C 127.349 107.976,126.856 106.291,126.254 105.919 C 125.506 105.456,125.546 104.776,126.382 103.769 C 128.270 101.494,129.170 101.981,130.494 105.993 M300.300 103.117 C 302.409 104.458,303.761 109.474,303.684 115.673 C 303.636 119.627,303.341 120.916,302.802 119.537 C 302.142 117.847,301.858 118.231,301.254 121.625 C 300.054 128.378,299.458 129.881,298.560 128.427 C 298.062 127.621,297.516 128.475,297.095 130.717 C 295.993 136.591,293.145 139.510,293.968 133.922 C 294.324 131.509,294.225 128.221,293.750 126.615 C 292.977 124.004,292.816 124.303,292.229 129.436 C 291.710 133.969,291.536 132.721,291.402 123.510 C 291.237 112.214,291.315 111.777,293.841 109.790 C 296.762 107.493,297.260 106.227,294.885 107.138 C 292.834 107.925,292.878 106.018,294.960 103.937 C 296.750 102.146,298.381 101.896,300.300 103.117 M287.680 112.960 C 283.646 121.813,279.547 134.280,277.679 143.379 C 276.884 147.251,276.059 149.128,275.429 148.498 C 274.800 147.868,276.366 141.583,279.702 131.350 C 282.599 122.466,284.969 114.385,284.969 113.392 C 284.969 109.803,289.360 103.595,290.984 104.889 C 291.135 105.009,289.649 108.641,287.680 112.960 M247.527 109.961 C 246.783 110.857,246.351 112.435,246.567 113.468 C 246.912 115.115,247.122 115.050,248.287 112.938 C 249.945 109.931,249.382 107.725,247.527 109.961 M132.568 117.501 C 132.568 118.860,130.330 122.129,129.400 122.129 C 127.990 122.129,128.143 119.665,129.645 118.163 C 130.955 116.853,132.568 116.488,132.568 117.501 M342.368 131.785 C 342.362 133.651,342.066 137.056,341.711 139.353 C 341.277 142.151,341.411 143.184,342.114 142.484 C 343.474 141.133,344.568 128.392,343.325 128.392 C 342.805 128.392,342.375 129.919,342.368 131.785 M254.767 131.038 C 258.431 132.933,257.445 136.743,253.290 136.743 C 251.139 136.743,245.303 131.934,245.303 130.162 C 245.303 128.830,251.629 129.416,254.767 131.038 M249.784 138.109 C 252.220 140.145,252.543 140.964,251.752 143.081 C 251.230 144.475,249.474 151.697,247.848 159.130 C 244.728 173.399,243.102 176.409,238.518 176.409 C 234.659 176.409,235.175 162.492,239.717 144.050 C 242.562 132.498,242.862 132.321,249.784 138.109 M191.433 136.307 C 192.750 139.739,191.928 141.097,187.293 143.147 C 178.799 146.905,176.068 142.181,183.977 137.412 C 189.184 134.272,190.573 134.066,191.433 136.307 M127.682 138.165 C 122.944 139.206,119.024 140.984,121.695 140.882 C 123.937 140.796,135.867 137.967,136.452 137.383 C 137.355 136.479,133.991 136.779,127.682 138.165 M201.779 147.443 C 208.979 156.906,213.031 163.815,215.937 171.583 C 219.294 180.555,216.613 178.471,209.967 166.942 C 206.845 161.528,202.245 154.108,199.745 150.453 C 195.927 144.873,193.973 139.875,195.610 139.875 C 195.836 139.875,198.612 143.280,201.779 147.443 M258.851 146.838 C 257.267 154.561,255.601 156.922,254.539 152.950 C 253.708 149.843,254.636 146.253,256.263 146.279 C 256.837 146.288,257.729 144.842,258.246 143.067 C 259.788 137.766,260.193 140.294,258.851 146.838 M137.327 146.268 C 135.065 146.798,132.951 147.501,132.630 147.829 C 131.666 148.815,144.490 147.020,145.564 146.019 C 146.811 144.856,142.840 144.976,137.327 146.268 M199.882 155.118 C 203.334 160.345,207.244 166.566,208.570 168.943 L 210.982 173.265 208.235 174.517 C 206.526 175.295,205.220 175.391,204.779 174.771 C 204.390 174.222,202.704 173.309,201.034 172.742 C 198.342 171.829,182.906 152.685,182.726 150.037 C 182.632 148.644,189.371 145.046,191.531 145.337 C 192.838 145.513,195.924 149.127,199.882 155.118 M274.037 154.322 C 273.651 156.604,272.691 159.337,271.903 160.394 C 270.801 161.874,270.867 160.821,272.190 155.831 C 274.085 148.681,275.134 147.824,274.037 154.322 M136.147 151.444 C 129.719 152.520,124.600 154.339,127.871 154.386 C 130.640 154.425,142.945 151.766,143.758 150.953 C 144.526 150.185,143.125 150.275,136.147 151.444 M117.954 155.532 C 115.913 156.852,120.625 156.852,123.695 155.532 C 125.488 154.762,125.340 154.627,122.651 154.578 C 120.929 154.546,118.815 154.976,117.954 155.532 M145.094 164.636 C 143.659 164.893,142.015 165.570,141.441 166.140 C 140.222 167.351,147.817 166.225,150.313 164.825 C 152.061 163.845,149.933 163.768,145.094 164.636 M184.744 167.834 C 184.756 168.867,184.263 168.910,182.605 168.022 C 180.847 167.082,180.686 166.585,181.730 165.327 C 183.102 163.673,184.710 165.011,184.744 167.834 M384.561 173.930 C 385.074 175.267,386.084 175.487,389.321 174.970 C 394.691 174.111,410.580 177.413,407.161 178.678 C 404.077 179.819,405.425 181.628,409.359 181.628 C 411.728 181.628,412.390 181.237,411.953 180.096 C 410.464 176.216,431.995 187.110,444.754 196.692 C 467.453 213.738,481.179 233.422,482.848 251.320 C 483.676 260.200,482.854 260.848,474.225 258.117 C 470.317 256.880,461.717 255.096,455.115 254.152 C 448.513 253.207,435.913 251.084,427.116 249.434 C 418.318 247.783,408.219 246.135,404.673 245.770 C 400.746 245.366,397.038 244.269,395.188 242.962 C 392.464 241.039,391.657 240.943,387.359 242.034 C 383.463 243.023,380.227 242.908,370.042 241.423 C 360.754 240.068,350.726 239.591,331.258 239.578 C 316.816 239.569,305.542 239.182,306.206 238.718 C 306.869 238.254,304.358 238.233,300.626 238.672 C 296.895 239.110,292.432 239.394,290.710 239.303 C 287.454 239.132,274.324 240.774,271.138 241.752 C 269.654 242.207,269.308 241.661,269.295 238.849 C 269.286 236.944,268.824 234.682,268.267 233.820 C 267.593 232.777,267.250 232.690,267.239 233.559 C 267.231 234.277,266.519 234.864,265.658 234.864 C 264.590 234.864,264.087 235.944,264.076 238.257 C 264.067 240.123,263.559 242.354,262.946 243.215 C 260.988 245.969,262.747 234.281,265.086 228.992 C 266.262 226.334,267.223 223.292,267.223 222.230 C 267.223 220.163,274.367 216.075,277.980 216.075 C 279.609 216.075,279.889 215.532,279.449 213.228 C 278.551 208.535,290.461 197.286,296.327 197.286 C 297.675 197.286,298.509 196.470,298.727 194.937 C 299.014 192.919,313.914 183.605,316.277 183.967 C 316.568 184.011,317.510 183.789,318.372 183.472 C 327.550 180.101,333.229 178.517,341.858 176.920 C 342.432 176.814,343.137 176.616,343.424 176.481 C 344.782 175.841,350.233 175.401,362.185 174.965 C 370.181 174.674,375.350 174.055,375.581 173.362 C 376.202 171.498,383.812 171.979,384.561 173.930 M356.211 178.529 C 352.372 180.073,353.458 181.557,357.516 180.312 C 359.525 179.695,361.169 178.800,361.169 178.322 C 361.169 177.229,359.247 177.309,356.211 178.529 M403.300 184.238 C 403.666 185.192,403.302 185.804,402.368 185.804 C 399.381 185.804,400.906 187.420,406.315 189.988 C 410.202 191.833,411.892 193.271,412.129 194.937 C 412.312 196.229,413.120 197.286,413.923 197.286 C 414.813 197.286,415.141 196.654,414.762 195.667 C 414.269 194.381,414.675 194.183,416.741 194.701 C 418.577 195.162,419.527 194.871,419.972 193.710 C 420.428 192.521,419.966 192.067,418.298 192.067 C 414.550 192.067,407.106 188.562,407.102 186.795 C 407.098 185.016,405.134 182.672,403.646 182.672 C 403.125 182.672,402.970 183.377,403.300 184.238 M354.546 189.800 C 352.102 192.501,352.380 194.362,355.167 193.966 C 356.849 193.727,357.609 192.817,357.846 190.762 C 358.228 187.438,357.006 187.082,354.546 189.800 M425.365 190.533 C 427.745 192.484,428.058 193.102,426.670 193.105 C 424.238 193.112,424.346 194.859,426.862 196.205 C 429.958 197.862,432.192 197.566,431.437 195.599 C 430.145 192.231,444.390 202.057,446.141 205.741 C 446.659 206.832,447.923 207.724,448.950 207.724 C 451.162 207.724,452.894 210.031,451.124 210.620 C 450.449 210.846,449.896 211.461,449.896 211.987 C 449.896 213.386,452.782 213.157,453.261 211.720 C 453.829 210.017,459.465 214.322,461.765 218.216 C 463.848 221.742,465.553 222.222,465.553 219.281 C 465.553 216.941,460.612 211.765,453.813 206.983 C 429.683 190.010,426.266 187.855,423.590 187.929 C 422.844 187.950,423.643 189.122,425.365 190.533 M419.842 195.398 C 419.045 196.195,420.175 197.241,423.763 199.029 C 427.764 201.023,428.692 201.964,428.266 203.594 C 427.660 205.912,429.587 208.768,431.756 208.768 C 433.771 208.768,433.556 205.999,431.479 205.202 C 430.536 204.840,430.044 204.264,430.386 203.921 C 431.419 202.888,441.597 210.702,449.482 218.581 C 462.161 231.251,462.422 231.465,462.422 229.207 C 462.422 223.473,423.039 192.202,419.842 195.398 M116.929 243.128 C 121.543 266.331,125.158 285.800,124.960 286.393 C 124.191 288.700,107.360 205.494,107.598 200.561 C 107.753 197.357,108.541 200.953,116.929 243.128 M114.882 212.536 C 115.196 212.223,116.281 216.062,117.294 221.067 C 118.307 226.072,121.663 239.562,124.753 251.044 C 139.394 305.457,139.779 308.014,132.332 301.409 C 129.453 298.856,128.598 295.116,116.931 234.065 C 111.844 207.447,110.621 199.305,113.104 208.588 C 113.769 211.073,114.569 212.849,114.882 212.536 M412.317 206.146 C 412.317 206.425,415.605 208.310,419.624 210.334 C 428.459 214.783,429.470 213.544,420.783 208.914 C 415.017 205.841,412.317 204.958,412.317 206.146 M333.857 212.674 C 332.059 213.076,330.418 215.943,331.415 216.941 C 332.261 217.786,337.452 215.734,337.902 214.377 C 338.363 212.989,336.311 212.125,333.857 212.674 M290.556 215.024 C 289.323 215.522,287.954 216.511,287.514 217.223 C 286.928 218.171,287.250 218.294,288.712 217.684 C 289.811 217.226,291.774 216.620,293.074 216.338 C 294.374 216.056,295.694 215.412,296.006 214.907 C 296.718 213.755,293.531 213.824,290.556 215.024 M440.957 216.984 C 442.644 218.780,444.478 220.251,445.033 220.251 C 446.401 220.251,442.606 216.148,439.991 214.799 C 438.492 214.027,438.769 214.652,440.957 216.984 M424.272 216.351 C 422.749 220.318,425.241 223.307,427.322 220.009 C 428.202 218.614,428.058 217.798,426.691 216.431 C 425.074 214.814,424.864 214.807,424.272 216.351 M320.211 222.033 C 321.509 222.282,323.388 222.273,324.386 222.012 C 325.384 221.750,324.322 221.546,322.025 221.558 C 319.729 221.569,318.912 221.783,320.211 222.033 M406.750 221.990 C 405.097 223.643,406.076 227.557,408.142 227.557 C 409.766 227.557,410.230 226.862,410.230 224.426 C 410.230 221.481,408.482 220.258,406.750 221.990 M468.031 223.643 C 468.960 224.935,471.827 229.515,474.403 233.820 C 478.874 241.295,480.547 242.453,477.869 236.218 C 476.020 231.914,468.544 221.294,467.362 221.294 C 466.801 221.294,467.102 222.351,468.031 223.643 M298.539 223.034 C 289.873 224.398,280.793 226.812,280.793 227.750 C 280.793 228.369,281.814 228.581,283.142 228.237 C 293.590 225.535,300.067 224.466,306.106 224.448 C 310.093 224.435,313.152 223.973,313.152 223.382 C 313.152 222.378,304.073 222.162,298.539 223.034 M304.280 227.199 C 291.226 228.751,283.607 229.992,278.445 231.407 C 268.177 234.221,271.858 234.702,284.186 232.157 C 296.965 229.518,302.714 229.063,302.714 230.689 C 302.714 232.274,305.421 231.936,306.889 230.167 C 308.576 228.134,310.021 228.169,310.021 230.242 C 310.021 231.733,310.170 231.733,311.661 230.242 C 312.563 229.339,313.385 228.536,313.488 228.456 C 313.590 228.376,319.546 227.989,326.722 227.597 L 339.770 226.884 323.591 226.855 C 314.692 226.839,306.002 226.994,304.280 227.199 M318.633 232.500 C 321.360 232.715,325.822 232.715,328.549 232.500 C 331.276 232.285,329.045 232.109,323.591 232.109 C 318.137 232.109,315.906 232.285,318.633 232.500 M292.878 233.690 C 292.568 234.193,294.536 234.388,297.253 234.126 C 304.440 233.430,305.046 232.953,298.861 232.859 C 295.881 232.814,293.189 233.188,292.878 233.690 M431.106 234.651 C 431.106 235.688,435.595 240.084,436.654 240.084 C 438.282 240.084,437.173 238.243,434.238 236.073 C 432.516 234.800,431.106 234.160,431.106 234.651 M437.987 237.474 C 438.928 238.909,439.996 240.137,440.360 240.203 C 440.725 240.268,442.327 240.476,443.922 240.664 L 446.820 241.007 444.633 237.935 C 441.868 234.052,439.631 233.876,442.090 237.735 L 443.920 240.605 440.849 237.735 C 437.021 234.158,435.738 234.041,437.987 237.474 M313.674 236.675 C 311.378 236.904,309.029 237.568,308.455 238.151 C 307.142 239.485,317.388 238.182,318.841 236.830 C 319.468 236.248,319.468 235.973,318.841 236.084 C 318.296 236.180,315.971 236.446,313.674 236.675 M330.678 236.682 C 334.288 236.886,339.925 236.885,343.204 236.678 C 346.482 236.472,343.528 236.305,336.639 236.307 C 329.749 236.309,327.067 236.478,330.678 236.682 M312.609 248.416 C 313.852 249.448,313.946 250.088,313.017 251.208 C 311.128 253.484,312.492 253.823,316.612 252.101 C 318.691 251.233,321.909 250.522,323.762 250.522 L 327.132 250.522 323.956 253.914 C 322.209 255.780,319.462 259.089,317.851 261.267 C 314.895 265.264,311.309 266.165,311.890 262.766 C 312.089 261.600,311.685 261.188,310.709 261.563 C 309.725 261.941,308.829 260.992,308.045 258.743 C 304.736 249.253,296.130 250.116,291.656 260.387 C 290.894 262.137,290.256 262.865,290.239 262.004 C 290.029 251.286,305.063 242.154,312.609 248.416 M355.950 250.000 L 359.491 253.653 355.196 253.653 C 349.716 253.653,347.601 254.483,347.593 256.636 C 347.568 264.181,342.646 269.432,338.682 266.143 C 337.463 265.131,336.495 265.104,334.471 266.026 C 325.120 270.287,322.703 262.892,330.800 254.795 C 338.988 246.607,350.529 244.407,355.950 250.000 M373.732 248.366 C 372.993 249.747,372.988 251.272,373.717 253.190 C 375.450 257.747,367.550 263.046,363.738 259.883 C 361.459 257.992,361.771 257.226,367.126 251.552 C 372.163 246.215,375.829 244.447,373.732 248.366 M392.480 251.048 C 391.134 252.481,389.557 253.653,388.976 253.653 C 388.394 253.653,389.264 252.249,390.908 250.533 C 392.553 248.816,394.130 247.644,394.413 247.927 C 394.696 248.211,393.827 249.615,392.480 251.048 M274.530 250.563 C 275.853 251.452,275.650 251.982,273.225 253.978 C 268.225 258.095,270.092 257.984,278.706 253.653 C 289.214 248.370,289.228 248.833,278.769 255.700 C 270.715 260.987,270.377 261.103,266.816 259.816 C 263.990 258.794,262.542 258.768,260.490 259.703 C 256.781 261.393,257.168 260.014,261.719 255.328 C 267.058 249.832,271.168 248.303,274.530 250.563 M143.848 297.234 C 146.170 302.544,147.940 306.889,147.781 306.889 C 143.929 306.889,140.791 304.101,139.411 299.452 C 137.268 292.237,127.342 253.033,127.381 251.942 C 127.399 251.448,130.162 259.264,133.521 269.311 C 136.879 279.358,141.527 291.923,143.848 297.234 M247.129 253.883 C 241.345 257.236,242.374 258.290,248.434 255.219 C 251.305 253.765,253.653 252.347,253.653 252.070 C 253.653 250.953,250.831 251.737,247.129 253.883 M287.395 264.353 C 285.942 269.663,284.497 274.948,284.185 276.096 C 282.944 280.657,285.617 276.110,287.758 270.021 C 289.005 266.473,290.034 264.275,290.044 265.136 C 290.107 270.150,285.426 279.235,282.614 279.558 C 278.593 280.021,277.900 277.368,280.728 272.335 C 282.000 270.073,282.831 267.645,282.575 266.940 C 282.319 266.235,282.826 264.836,283.701 263.831 C 284.576 262.826,284.838 262.004,284.282 262.004 C 282.927 262.004,277.695 267.537,276.201 270.549 C 274.886 273.202,271.155 274.101,267.329 272.686 L 264.906 271.789 268.108 268.587 C 269.870 266.825,272.620 265.055,274.221 264.654 C 275.821 264.252,279.011 262.396,281.310 260.528 C 284.732 257.750,288.955 254.882,289.852 254.729 C 289.954 254.712,288.848 259.042,287.395 264.353 M399.787 256.258 C 400.832 257.517,400.738 258.343,399.299 260.539 L 397.517 263.260 394.223 260.283 C 392.411 258.646,390.758 257.216,390.548 257.105 C 390.209 256.926,396.184 255.029,397.837 254.791 C 398.197 254.740,399.075 255.400,399.787 256.258 M428.704 256.264 C 429.934 257.126,431.249 259.235,431.626 260.950 C 432.373 264.350,433.210 265.128,437.813 266.701 C 442.321 268.243,442.491 270.355,438.106 270.355 C 433.915 270.355,432.778 269.250,431.265 263.707 C 430.050 259.256,427.376 255.741,425.204 255.741 C 423.527 255.741,423.383 256.995,424.888 258.499 C 425.643 259.254,425.511 259.973,424.459 260.846 C 423.349 261.768,422.747 261.791,422.217 260.933 C 421.729 260.143,420.592 260.553,418.739 262.187 L 415.986 264.614 418.038 262.004 C 424.338 253.996,424.975 253.653,428.704 256.264 M414.680 257.046 C 415.964 257.764,417.199 258.457,417.424 258.586 C 417.650 258.716,417.230 259.550,416.492 260.440 C 415.285 261.894,414.948 261.875,413.153 260.250 C 411.487 258.742,410.810 258.660,409.058 259.754 C 403.550 263.194,401.710 263.271,403.406 259.991 C 405.661 255.631,410.082 254.476,414.680 257.046 M324.506 261.347 C 323.818 262.857,322.849 264.092,322.353 264.092 C 321.856 264.092,322.201 262.639,323.119 260.863 C 325.114 257.006,326.296 257.419,324.506 261.347 M385.699 264.186 C 397.104 265.560,411.364 268.765,415.428 270.866 C 417.524 271.950,418.534 272.060,418.809 271.234 C 419.310 269.731,423.127 271.613,427.341 275.441 C 430.340 278.165,430.356 278.167,429.772 275.775 C 429.280 273.766,429.433 273.574,430.692 274.619 C 431.522 275.308,432.504 275.569,432.874 275.199 C 433.244 274.829,434.435 275.330,435.522 276.313 C 437.104 277.745,437.666 277.827,438.347 276.726 C 438.942 275.762,439.410 275.696,439.910 276.507 C 440.303 277.142,441.094 277.662,441.668 277.662 C 442.242 277.662,442.458 277.251,442.148 276.750 C 441.838 276.248,443.924 275.527,446.784 275.148 C 449.644 274.769,451.983 273.953,451.983 273.334 C 451.983 271.969,458.566 273.040,462.347 275.022 L 464.925 276.372 459.759 278.960 C 441.547 288.081,410.230 293.178,410.230 287.021 C 410.230 285.819,402.944 279.184,401.918 279.451 C 401.446 279.574,397.434 277.608,393.002 275.083 C 388.571 272.557,381.891 269.193,378.159 267.607 C 372.827 265.341,371.790 264.559,373.317 263.959 C 375.936 262.929,375.151 262.915,385.699 264.186 M475.992 267.530 C 475.992 272.941,472.070 274.433,465.534 271.507 C 461.415 269.662,461.260 269.448,463.264 268.375 C 466.559 266.612,471.816 266.904,471.816 268.851 C 471.816 269.769,472.317 270.169,472.965 269.768 C 473.634 269.355,473.853 267.749,473.488 265.926 C 472.948 263.227,473.078 262.973,474.427 264.092 C 475.287 264.807,475.992 266.354,475.992 267.530 M323.930 273.747 C 322.128 276.798,316.441 272.085,317.764 268.637 C 318.237 267.402,318.983 267.688,321.377 270.023 C 323.035 271.641,324.185 273.317,323.930 273.747 M376.044 276.100 C 377.049 276.508,377.871 277.731,377.871 278.817 C 377.871 280.003,378.601 280.794,379.697 280.794 C 380.702 280.795,379.528 281.783,377.088 282.991 C 372.660 285.183,371.309 287.056,374.156 287.056 C 374.983 287.056,375.955 286.579,376.315 285.995 C 376.676 285.412,377.439 285.224,378.011 285.577 C 380.103 286.871,375.920 289.846,372.678 289.371 C 370.041 288.984,369.724 288.625,370.588 287.010 C 372.034 284.308,371.888 283.925,369.408 283.925 C 367.813 283.925,367.386 284.388,367.855 285.609 C 368.406 287.046,367.924 287.187,364.574 286.572 C 359.588 285.655,357.931 284.149,360.386 282.764 C 362.621 281.503,362.801 278.706,360.647 278.706 C 359.786 278.706,359.081 279.175,359.081 279.749 C 359.081 281.620,357.152 280.848,356.472 278.706 C 356.095 277.517,354.892 276.618,353.680 276.618 C 352.217 276.618,351.739 277.107,352.152 278.184 C 352.524 279.154,352.147 279.749,351.158 279.749 C 348.443 279.749,350.504 281.531,354.036 282.237 C 356.450 282.720,357.068 283.224,356.249 284.043 C 355.117 285.175,348.422 283.581,346.086 281.624 C 344.398 280.210,339.504 280.709,338.871 282.359 C 338.540 283.220,337.692 283.925,336.985 283.925 C 335.985 283.925,335.978 283.646,336.952 282.672 C 338.727 280.897,338.514 280.074,336.117 279.447 C 332.097 278.396,333.736 276.288,337.944 277.099 C 345.777 278.607,349.165 278.296,349.167 276.068 C 349.169 272.731,367.791 272.753,376.044 276.100 M264.076 277.401 C 264.029 279.689,262.035 281.207,262.020 278.967 C 262.011 277.675,262.474 276.618,263.048 276.618 C 263.622 276.618,264.085 276.970,264.076 277.401 M324.635 278.706 C 322.611 280.013,321.503 280.013,321.503 278.706 C 321.503 278.132,322.560 277.669,323.852 277.678 C 325.751 277.691,325.901 277.887,324.635 278.706 M384.436 286.014 C 383.685 288.886,383.090 288.627,383.090 285.429 C 383.090 283.960,383.515 283.021,384.036 283.342 C 384.556 283.664,384.736 284.866,384.436 286.014 M497.912 290.644 C 497.912 291.401,497.120 292.665,496.151 293.453 C 494.601 294.714,494.476 294.656,495.107 292.973 C 495.502 291.921,495.825 290.367,495.825 289.519 C 495.825 288.671,496.294 288.267,496.868 288.622 C 497.443 288.977,497.912 289.887,497.912 290.644 M92.441 298.158 C 95.928 298.568,97.739 299.173,96.946 299.663 C 95.442 300.593,96.755 300.951,108.038 302.686 C 112.056 303.304,116.754 304.061,118.476 304.369 C 120.914 304.804,121.261 304.676,120.042 303.789 C 117.867 302.208,121.741 303.147,137.787 308.093 C 148.946 311.532,148.716 313.563,137.526 310.397 C 136.521 310.113,135.699 310.300,135.699 310.814 C 135.699 311.327,139.575 312.337,144.311 313.058 C 161.365 315.654,236.501 337.776,247.684 343.494 C 252.842 346.131,254.461 346.053,251.989 343.285 C 249.506 340.506,250.314 340.705,265.658 346.653 C 302.452 360.916,327.632 384.268,317.328 394.572 C 314.718 397.182,314.089 397.175,310.684 394.496 C 307.234 391.783,307.006 389.309,310.282 390.153 C 312.450 390.712,312.514 390.604,311.121 388.751 C 307.165 383.488,302.084 378.910,300.153 378.868 C 298.978 378.843,294.024 376.519,289.144 373.703 C 284.264 370.888,278.439 367.575,276.199 366.341 C 273.461 364.832,272.549 363.836,273.415 363.301 C 274.167 362.836,272.466 362.208,269.324 361.791 C 266.365 361.399,258.458 359.239,251.753 356.992 C 219.211 346.087,192.705 338.193,191.770 339.128 C 190.744 340.154,197.642 342.579,217.572 348.200 C 223.275 349.809,227.466 351.283,226.884 351.477 C 224.619 352.232,161.357 332.722,160.248 330.927 C 159.924 330.403,157.439 329.654,154.725 329.262 C 152.011 328.871,149.087 328.129,148.225 327.615 C 147.226 327.017,148.074 326.918,150.574 327.339 C 156.815 328.391,155.117 326.998,147.330 324.679 C 139.160 322.246,138.463 322.151,139.353 323.591 C 140.246 325.036,141.254 325.261,118.297 318.901 C 97.835 313.233,92.166 312.160,93.424 314.196 C 94.440 315.841,91.136 315.413,89.398 313.674 C 88.536 312.813,87.379 312.109,86.825 312.109 C 86.271 312.109,85.576 311.477,85.280 310.706 C 84.984 309.934,81.763 308.725,78.122 308.020 C 74.482 307.314,70.407 306.518,69.067 306.249 C 67.360 305.908,66.862 306.136,67.403 307.012 C 67.982 307.948,66.944 308.093,63.262 307.588 C 59.667 307.095,58.548 307.239,59.094 308.123 C 59.567 308.887,59.298 309.124,58.365 308.766 C 57.554 308.454,54.071 307.595,50.626 306.857 C 39.703 304.516,40.864 300.591,53.066 298.611 C 56.891 297.990,61.195 297.282,62.630 297.037 C 65.762 296.503,84.284 297.200,92.441 298.158 M485.908 299.705 C 488.869 300.729,490.180 301.826,490.414 303.473 C 490.742 305.784,490.722 305.787,486.760 304.048 C 482.554 302.202,463.785 301.554,457.985 303.055 C 455.020 303.822,454.499 303.214,456.040 300.783 C 458.174 297.416,477.300 296.725,485.908 299.705 M368.476 301.148 C 368.476 302.584,368.045 303.758,367.519 303.758 C 366.296 303.758,365.509 301.536,366.132 299.843 C 366.963 297.584,368.476 298.426,368.476 301.148 M372.651 301.148 C 372.651 302.584,372.182 303.758,371.608 303.758 C 371.033 303.758,370.564 302.584,370.564 301.148 C 370.564 299.713,371.033 298.539,371.608 298.539 C 372.182 298.539,372.651 299.713,372.651 301.148 M412.958 299.575 C 434.651 300.671,436.326 300.971,436.326 303.761 C 436.326 306.969,400.883 307.880,381.263 305.176 C 377.560 304.666,376.827 304.182,376.827 302.248 C 376.827 297.949,378.427 297.831,412.958 299.575 M357.521 305.855 C 357.879 306.434,357.838 307.961,357.429 309.247 C 356.708 311.515,356.660 311.522,355.869 309.499 C 355.105 307.546,355.048 307.567,354.979 309.822 C 354.939 311.149,354.437 311.942,353.862 311.587 C 353.288 311.232,352.818 311.378,352.818 311.911 C 352.818 312.445,350.822 313.383,348.382 313.996 C 345.942 314.610,342.771 315.421,341.336 315.800 C 339.901 316.179,327.218 316.940,313.152 317.491 C 283.116 318.669,279.310 318.919,277.874 319.806 C 277.281 320.173,276.558 319.882,276.268 319.161 C 275.972 318.427,275.703 318.725,275.657 319.838 C 275.575 321.794,275.536 321.794,273.309 319.838 C 271.276 318.053,271.113 318.036,271.711 319.676 C 272.489 321.810,271.372 322.059,269.366 320.198 C 268.218 319.133,268.078 319.229,268.603 320.720 C 269.921 324.465,265.134 322.798,263.527 318.952 C 261.346 313.731,262.929 310.192,265.770 313.935 C 267.068 315.645,267.159 315.625,267.190 313.637 C 267.210 312.369,267.960 311.464,269.050 311.393 C 271.211 311.252,275.041 310.583,282.881 308.977 C 286.039 308.331,301.070 307.600,316.284 307.353 C 331.498 307.107,346.294 306.494,349.165 305.993 C 356.605 304.693,356.801 304.689,357.521 305.855 M484.342 308.977 C 482.291 310.303,479.123 310.303,479.123 308.977 C 479.123 308.403,480.650 307.940,482.516 307.949 C 485.090 307.961,485.531 308.209,484.342 308.977 M400.313 309.709 C 398.591 309.940,392.484 311.262,386.743 312.647 C 367.301 317.339,362.426 318.167,361.236 316.977 C 358.468 314.209,361.996 309.216,365.274 311.263 C 366.733 312.174,369.632 312.074,377.487 310.840 C 383.152 309.950,391.310 309.237,395.616 309.256 C 399.922 309.274,402.035 309.478,400.313 309.709 M41.754 311.587 C 41.461 312.172,43.283 312.860,45.902 313.152 C 50.513 313.668,50.606 313.757,53.283 320.186 C 56.382 327.627,56.833 328.247,58.436 327.256 C 59.245 326.756,59.270 326.139,58.520 325.234 C 57.282 323.743,54.088 315.084,54.591 314.581 C 54.774 314.398,57.950 315.114,61.648 316.173 L 68.372 318.098 64.995 320.061 C 61.715 321.970,59.685 324.635,61.513 324.635 C 62.010 324.635,64.462 323.466,66.960 322.038 C 73.783 318.137,77.052 318.500,78.964 323.367 C 80.695 327.772,80.768 327.796,93.251 328.093 C 102.540 328.315,104.762 329.855,106.063 336.974 C 107.391 344.249,108.293 345.727,110.637 344.473 C 113.101 343.154,113.410 341.336,111.169 341.336 C 110.308 341.336,109.603 341.140,109.603 340.900 C 109.603 340.659,109.298 339.667,108.925 338.695 C 108.340 337.172,108.721 337.030,111.665 337.677 C 114.057 338.202,114.869 338.081,114.370 337.272 C 113.420 335.737,115.122 335.790,116.677 337.345 C 117.618 338.286,118.356 338.164,119.838 336.823 C 125.480 331.718,131.793 335.611,135.830 346.685 C 138.486 353.967,138.625 353.997,144.974 348.643 C 152.800 342.044,155.890 342.831,159.405 352.319 C 160.825 356.151,161.939 357.603,163.650 357.849 C 166.505 358.260,166.604 357.350,163.952 355.073 C 162.108 353.490,159.231 345.640,160.156 344.715 C 160.371 344.500,165.151 345.695,170.778 347.371 C 180.658 350.315,180.876 350.444,177.143 351.144 C 171.459 352.210,172.439 353.650,178.737 353.484 L 184.196 353.340 187.316 359.081 C 189.367 362.855,190.560 364.210,190.798 363.036 C 191.076 361.666,191.936 361.364,194.484 361.741 L 197.808 362.232 194.676 360.753 C 191.047 359.040,186.187 354.175,187.146 353.216 C 188.220 352.142,204.096 357.559,203.810 358.902 C 203.657 359.621,204.825 360.125,206.644 360.125 C 210.158 360.125,211.252 361.654,214.117 370.564 C 215.944 376.245,215.963 376.264,216.019 372.390 C 216.050 370.237,216.226 368.476,216.411 368.476 C 216.596 368.476,218.913 369.214,221.560 370.116 C 225.154 371.341,226.902 371.473,228.463 370.638 C 233.703 367.833,236.952 370.594,236.952 377.853 C 236.952 381.200,237.868 384.134,238.914 384.134 C 239.810 384.134,238.733 371.478,237.698 369.848 C 236.887 368.571,237.266 368.651,246.561 371.703 L 250.428 372.973 246.039 376.945 C 240.830 381.657,242.259 382.363,247.912 377.871 C 252.157 374.497,256.141 373.901,259.423 376.149 C 260.556 376.925,262.839 377.889,264.497 378.293 C 277.840 381.540,319.378 401.645,323.260 406.735 C 327.647 412.486,327.832 419.461,323.709 423.679 C 321.921 425.507,320.459 427.650,320.459 428.440 C 320.459 429.230,319.014 431.093,317.248 432.579 C 314.016 435.298,314.687 436.210,318.440 434.201 C 319.551 433.607,320.459 433.360,320.459 433.653 C 320.459 436.260,310.573 438.226,309.643 435.804 C 309.313 434.943,307.971 434.184,306.661 434.117 C 304.893 434.027,304.750 433.873,306.106 433.518 C 308.729 432.833,308.362 431.422,305.063 429.508 C 303.484 428.592,303.014 428.092,304.019 428.398 C 306.664 429.202,306.264 427.452,303.497 426.117 C 301.303 425.059,301.286 424.978,303.236 424.877 C 305.112 424.780,305.059 424.618,302.714 423.278 C 300.722 422.139,300.537 421.777,301.931 421.749 C 307.542 421.635,299.126 417.097,279.462 409.632 C 273.851 407.502,269.447 405.570,269.678 405.340 C 269.908 405.109,272.593 405.869,275.644 407.029 C 281.703 409.331,283.794 409.188,279.064 406.795 C 273.935 404.200,265.254 401.702,263.330 402.268 C 262.314 402.567,260.073 402.170,258.351 401.386 C 256.628 400.602,255.924 399.915,256.785 399.860 C 259.929 399.658,255.401 397.903,232.201 390.333 C 217.343 385.485,209.131 382.314,209.428 381.540 C 209.996 380.062,177.219 370.297,176.359 371.688 C 176.042 372.201,169.829 370.920,162.552 368.841 C 155.275 366.763,149.555 364.683,149.841 364.220 C 150.127 363.757,147.796 362.570,144.660 361.582 L 138.959 359.785 143.777 356.562 C 146.427 354.790,149.177 352.898,149.888 352.357 C 151.427 351.187,154.489 353.351,154.489 355.608 C 154.489 364.593,164.300 366.275,177.688 359.586 C 181.118 357.872,184.222 360.893,185.382 367.075 C 186.232 371.608,188.741 373.230,197.259 374.752 C 204.702 376.082,207.018 377.043,210.750 380.350 L 213.253 382.568 212.591 379.958 C 212.228 378.523,211.392 374.648,210.735 371.347 C 209.249 363.880,207.174 363.221,208.142 370.523 L 208.829 375.701 203.999 374.248 C 197.577 372.315,197.607 372.540,203.103 367.473 C 206.691 364.166,207.618 362.733,206.737 361.851 C 205.855 360.970,204.410 361.914,201.069 365.553 C 197.251 369.712,191.772 372.803,190.580 371.472 C 190.390 371.259,188.563 367.445,186.521 362.996 C 182.126 353.420,180.454 352.890,170.749 357.995 C 162.347 362.415,160.873 361.671,156.005 350.550 C 153.530 344.896,151.836 344.827,146.646 350.167 C 138.358 358.695,135.288 357.878,130.953 345.993 C 126.668 334.243,124.954 333.787,115.763 341.950 C 109.036 347.924,105.769 348.132,104.911 342.641 C 102.664 328.257,98.124 325.229,91.904 333.965 C 89.631 337.157,86.387 338.796,83.246 338.339 C 80.969 338.008,80.833 339.844,83.071 340.703 C 85.985 341.821,88.380 341.387,91.099 339.248 C 92.559 338.100,94.486 337.161,95.382 337.161 C 96.402 337.161,96.787 336.575,96.411 335.595 C 96.080 334.734,96.251 334.029,96.789 334.029 C 97.831 334.029,99.204 336.433,101.583 342.421 C 103.514 347.284,106.032 349.687,109.198 349.687 C 112.973 349.687,119.687 345.939,120.332 343.471 C 121.763 337.998,131.524 348.680,131.524 355.718 C 131.524 356.338,132.346 357.674,133.351 358.687 C 135.091 360.443,135.085 360.495,133.210 359.785 C 131.229 359.034,118.787 355.309,86.117 345.688 C 51.572 335.514,17.726 326.760,10.673 326.174 C 3.466 325.575,1.902 324.798,2.675 322.202 C 4.766 315.190,8.792 311.897,13.206 313.590 C 14.426 314.059,14.060 314.797,11.564 316.897 C 6.966 320.766,7.502 322.033,14.353 323.499 C 17.654 324.205,21.236 325.035,22.312 325.343 C 23.460 325.671,24.005 325.473,23.629 324.865 C 23.276 324.294,21.326 323.516,19.296 323.135 L 15.603 322.442 21.100 318.743 C 27.537 314.412,28.973 314.803,31.319 321.529 C 32.182 324.004,33.474 326.224,34.189 326.462 C 36.285 327.161,48.569 318.518,46.570 317.751 C 45.603 317.380,42.878 318.461,40.036 320.343 C 34.771 323.830,32.359 323.408,32.359 318.998 C 32.359 312.393,26.910 310.466,20.516 314.811 C 18.329 316.297,16.304 317.278,16.017 316.991 C 14.908 315.882,23.617 311.065,26.732 311.065 C 30.409 311.065,31.856 312.349,32.910 316.551 C 33.306 318.126,34.033 319.415,34.527 319.415 C 35.021 319.415,35.246 318.828,35.026 318.111 C 32.914 311.199,33.282 310.201,37.884 310.376 C 40.416 310.472,42.055 310.985,41.754 311.587 M453.549 313.152 C 463.309 314.285,472.160 315.217,473.219 315.225 C 474.284 315.234,475.397 316.212,475.712 317.416 C 476.095 318.879,476.534 319.183,477.053 318.344 C 477.501 317.618,478.008 318.672,478.264 320.865 C 478.769 325.194,478.402 325.645,477.106 322.286 C 476.184 319.893,476.142 319.934,474.616 324.746 C 473.884 327.055,461.703 327.232,444.676 325.181 C 437.500 324.316,426.109 323.605,419.363 323.600 C 411.888 323.594,407.098 323.183,407.098 322.547 C 407.098 321.973,406.394 321.503,405.532 321.503 C 404.671 321.503,403.934 320.916,403.893 320.198 C 403.853 319.481,403.416 319.833,402.923 320.981 C 402.250 322.547,402.007 321.814,401.952 318.049 C 401.905 314.812,402.266 313.268,402.968 313.703 C 403.568 314.073,404.625 313.916,405.317 313.355 C 408.822 310.512,430.019 310.423,453.549 313.152 M400.729 318.111 C 400.623 323.016,400.610 323.033,399.550 319.735 C 398.961 317.901,398.760 315.670,399.102 314.777 C 400.231 311.835,400.837 313.076,400.729 318.111 M397.379 319.154 C 397.117 320.159,396.902 319.337,396.902 317.328 C 396.902 315.318,397.117 314.496,397.379 315.501 C 397.642 316.506,397.642 318.150,397.379 319.154 M395.600 318.633 C 395.587 320.532,395.390 320.682,394.572 319.415 C 393.264 317.392,393.264 316.284,394.572 316.284 C 395.146 316.284,395.609 317.341,395.600 318.633 M381.785 321.489 C 382.503 321.497,383.090 322.053,383.090 322.726 C 383.090 323.398,383.867 324.807,384.817 325.857 C 386.198 327.382,386.250 327.779,385.078 327.828 C 374.660 328.265,362.133 333.107,352.818 340.296 C 340.236 350.007,340.234 350.008,340.980 348.065 C 341.542 346.600,341.327 346.495,339.668 347.426 C 336.062 349.449,331.395 353.786,332.782 353.825 C 334.497 353.872,325.606 362.900,319.604 367.207 C 314.017 371.216,314.079 371.239,301.148 360.346 C 285.528 347.188,279.819 341.405,277.041 335.922 C 273.849 329.622,273.889 328.814,277.401 328.794 C 281.974 328.769,284.215 326.767,279.749 326.697 L 276.096 326.639 278.882 325.126 C 281.341 323.790,282.292 323.815,287.003 325.337 C 292.662 327.164,327.191 325.900,336.238 323.534 C 338.314 322.991,341.132 322.588,342.501 322.639 C 343.870 322.690,341.936 323.441,338.205 324.308 C 334.473 325.175,330.973 326.308,330.428 326.826 C 328.756 328.411,334.091 327.900,341.589 325.755 C 350.296 323.265,373.662 320.324,378.392 321.122 C 379.541 321.316,381.067 321.481,381.785 321.489 M93.946 325.807 C 93.946 327.111,92.434 326.953,86.574 325.036 C 79.332 322.668,80.139 321.414,87.683 323.314 C 91.127 324.182,93.946 325.304,93.946 325.807 M324.374 323.267 C 323.369 323.529,321.725 323.529,320.720 323.267 C 319.716 323.004,320.538 322.789,322.547 322.789 C 324.556 322.789,325.378 323.004,324.374 323.267 M63.674 327.244 C 58.940 331.200,56.314 331.783,54.280 329.332 C 52.510 327.200,51.068 327.355,51.862 329.593 C 54.306 336.485,58.318 336.552,65.056 329.815 C 68.317 326.553,70.898 324.780,71.852 325.146 C 73.119 325.632,73.040 325.991,71.404 327.188 C 69.512 328.571,69.556 328.675,72.324 329.369 C 74.019 329.795,75.878 331.352,76.786 333.108 C 78.865 337.129,79.323 336.899,78.591 332.203 C 77.010 322.054,71.914 320.360,63.674 327.244 M295.158 325.352 C 294.160 325.613,292.281 325.623,290.983 325.373 C 289.684 325.123,290.501 324.909,292.797 324.898 C 295.094 324.886,296.156 325.091,295.158 325.352 M444.976 329.322 C 449.886 330.262,458.910 330.859,467.765 330.831 C 483.897 330.779,484.283 330.906,487.571 337.352 C 488.689 339.543,490.064 341.336,490.627 341.336 C 491.189 341.336,491.649 342.326,491.649 343.535 C 491.649 345.206,491.210 345.563,489.823 345.022 C 469.151 336.952,441.825 330.371,422.962 328.920 L 411.795 328.060 424.322 327.913 C 431.722 327.827,440.174 328.403,444.976 329.322 M114.485 330.641 C 121.311 332.570,123.278 334.788,117.647 334.205 C 114.163 333.844,105.428 330.402,105.428 329.391 C 105.428 328.416,107.747 328.736,114.485 330.641 M259.916 330.278 C 259.916 330.511,257.803 331.422,255.219 332.302 C 252.636 333.182,250.522 333.508,250.522 333.026 C 250.522 332.543,252.283 331.681,254.436 331.109 C 259.206 329.842,259.916 329.735,259.916 330.278 M410.230 332.445 C 417.778 332.553,421.712 334.151,421.712 337.110 C 421.712 338.191,422.299 339.311,423.017 339.601 C 423.796 339.915,423.586 340.161,422.495 340.210 C 421.490 340.255,420.668 339.823,420.668 339.248 C 420.668 337.388,417.642 338.144,416.493 340.292 C 415.878 341.441,414.842 342.380,414.190 342.380 C 413.537 342.380,412.145 343.157,411.095 344.108 C 409.302 345.730,409.186 345.699,409.186 343.586 C 409.186 342.348,408.716 341.336,408.142 341.336 C 407.568 341.336,407.098 341.789,407.098 342.343 C 407.098 342.897,406.169 343.847,405.034 344.455 C 403.350 345.356,403.082 345.267,403.580 343.970 C 404.332 342.011,403.619 341.977,400.000 343.801 C 395.758 345.939,388.236 346.901,388.566 345.264 C 388.733 344.431,387.869 344.043,386.221 344.210 C 384.242 344.410,383.983 344.235,385.147 343.484 C 386.891 342.359,386.786 342.226,382.794 340.510 C 380.507 339.527,379.805 339.538,379.501 340.560 C 378.046 345.449,377.520 346.127,377.090 343.669 C 376.863 342.369,376.202 341.599,375.620 341.958 C 374.995 342.345,374.706 341.649,374.912 340.254 C 375.280 337.768,376.213 337.102,381.925 335.250 C 384.256 334.494,386.100 334.449,387.349 335.118 C 388.693 335.837,389.485 335.731,390.080 334.753 C 391.276 332.788,397.756 330.954,400.835 331.709 C 402.270 332.061,406.498 332.392,410.230 332.445 M430.063 335.595 C 430.063 336.456,429.593 337.161,429.019 337.161 C 428.445 337.161,427.975 337.865,427.975 338.727 C 427.975 339.701,428.961 340.292,430.585 340.292 C 433.220 340.292,434.080 342.573,432.395 345.093 C 431.495 346.440,427.975 346.616,427.975 345.313 C 427.975 344.822,426.705 345.251,425.153 346.268 L 422.332 348.117 424.047 344.988 C 424.990 343.266,426.046 340.097,426.394 337.944 C 427.009 334.132,430.063 332.177,430.063 335.595 M143.926 339.276 L 151.630 341.506 148.623 343.359 C 146.969 344.379,144.721 346.219,143.627 347.450 C 141.301 350.066,139.300 350.326,138.453 348.121 C 138.010 346.966,138.598 346.554,140.690 346.551 L 143.528 346.548 140.352 344.611 C 136.126 342.033,131.723 335.557,134.916 336.615 C 135.634 336.852,139.688 338.050,143.926 339.276 M52.230 342.392 C 60.862 345.270,73.897 349.229,81.196 351.191 C 88.496 353.152,93.317 354.791,91.910 354.832 C 87.021 354.974,91.340 356.667,99.687 357.881 C 110.010 359.382,112.662 359.278,106.472 357.614 C 102.816 356.631,102.257 356.222,103.951 355.771 C 106.399 355.119,142.022 365.448,141.308 366.603 C 140.781 367.455,174.224 378.316,174.996 377.544 C 175.276 377.264,173.798 376.471,171.712 375.783 C 169.626 375.094,168.110 374.340,168.343 374.107 C 169.000 373.449,200.315 384.294,217.693 391.198 C 226.276 394.607,237.761 398.668,243.215 400.221 C 269.311 407.651,285.567 415.868,290.208 423.974 C 298.808 438.994,287.382 468.429,271.800 471.398 C 267.009 472.311,242.459 470.450,229.123 468.162 C 211.439 465.129,140.816 447.579,153.445 449.356 L 157.098 449.870 153.967 448.364 C 150.125 446.517,144.741 446.167,147.182 447.922 C 148.473 448.852,148.404 448.937,146.786 448.410 C 145.708 448.058,142.772 447.253,140.262 446.621 C 137.753 445.989,135.699 445.086,135.699 444.613 C 135.699 444.140,132.294 442.731,128.132 441.483 C 123.969 440.234,119.748 438.798,118.751 438.291 C 117.754 437.784,115.630 437.370,114.030 437.370 C 111.793 437.370,95.414 431.879,94.286 430.751 C 93.499 429.964,105.735 431.020,109.448 432.060 C 117.392 434.284,115.284 432.476,106.538 429.563 C 95.655 425.938,95.249 424.597,105.950 427.620 C 109.908 428.738,106.071 426.177,101.775 424.833 C 99.478 424.115,97.121 423.152,96.537 422.693 C 95.953 422.234,94.310 422.737,92.886 423.811 L 90.298 425.764 92.905 426.893 C 95.424 427.985,95.407 428.004,92.380 427.461 C 89.419 426.930,89.359 426.985,91.275 428.481 C 94.117 430.700,93.155 430.484,84.956 427.063 C 73.558 422.308,71.880 421.403,73.086 420.658 C 73.702 420.277,70.384 418.243,65.714 416.138 C 61.043 414.033,56.848 412.542,56.391 412.824 C 55.935 413.107,55.323 412.426,55.031 411.312 C 54.740 410.198,54.985 409.125,55.577 408.927 C 57.174 408.395,54.273 404.235,51.722 403.401 C 49.819 402.779,49.786 402.647,51.422 402.211 C 52.434 401.942,52.993 401.287,52.665 400.756 C 52.337 400.225,52.639 399.791,53.336 399.791 C 54.122 399.791,53.886 398.999,52.714 397.704 C 51.675 396.555,49.673 395.616,48.265 395.616 C 46.498 395.616,45.880 395.163,46.267 394.152 C 46.576 393.347,46.509 392.369,46.118 391.977 C 45.727 391.586,45.407 390.770,45.407 390.162 C 45.407 389.009,43.645 387.847,40.299 386.794 C 39.213 386.452,38.564 385.931,38.859 385.637 C 39.154 385.342,41.865 386.075,44.885 387.265 C 47.905 388.455,50.608 389.198,50.891 388.914 C 52.003 387.803,50.018 384.987,48.526 385.560 C 46.802 386.221,34.834 381.511,32.359 379.197 C 30.997 377.924,31.167 377.825,33.664 378.437 C 38.548 379.634,36.867 378.260,28.706 374.384 C 16.807 368.734,19.358 368.062,31.830 373.562 C 39.710 377.037,42.784 378.905,42.790 380.219 C 42.796 381.714,43.745 382.046,48.017 382.046 C 50.887 382.046,53.236 381.652,53.236 381.170 C 53.236 379.911,58.107 377.871,61.114 377.871 C 62.522 377.871,63.674 377.447,63.674 376.929 C 63.674 376.411,65.160 375.469,66.975 374.836 C 72.459 372.925,69.466 372.337,63.330 374.121 C 56.806 376.017,53.236 376.244,53.236 374.761 C 53.236 374.134,52.248 374.190,50.679 374.905 C 48.684 375.814,47.364 375.720,44.676 374.477 C 42.782 373.601,40.057 372.549,38.622 372.140 C 37.187 371.730,31.668 369.078,26.357 366.246 C 21.046 363.413,16.694 361.465,16.685 361.915 C 16.677 362.366,16.214 362.030,15.658 361.169 C 14.789 359.825,14.643 359.857,14.630 361.397 C 14.609 363.728,11.514 362.652,11.400 360.275 C 11.355 359.331,10.837 359.876,10.250 361.486 C 9.047 364.787,10.015 371.993,11.535 371.053 C 12.080 370.716,12.533 371.760,12.542 373.373 C 12.554 375.480,12.818 375.894,13.482 374.846 C 14.147 373.796,14.812 374.819,15.858 378.499 C 17.837 385.467,16.095 387.599,12.811 382.230 C 9.698 377.142,7.966 368.242,8.716 361.191 C 11.335 336.568,21.535 332.161,52.230 342.392 M67.850 338.070 C 67.850 338.509,70.357 339.658,73.422 340.624 C 79.724 342.610,81.234 342.801,79.802 341.431 C 78.387 340.077,67.850 337.114,67.850 338.070 M441.884 337.848 C 442.262 338.225,441.988 339.243,441.275 340.108 C 440.153 341.471,440.400 341.581,443.111 340.929 C 446.220 340.181,446.226 340.188,443.894 341.859 C 442.602 342.785,441.545 344.411,441.545 345.473 C 441.545 346.836,440.978 347.256,439.617 346.900 C 438.219 346.534,437.823 345.700,438.174 343.860 C 438.441 342.465,438.114 340.668,437.449 339.866 C 435.852 337.942,440.062 336.026,441.884 337.848 M435.888 345.253 C 434.751 346.390,434.319 344.903,435.041 342.334 L 435.761 339.770 436.128 342.209 C 436.329 343.550,436.222 344.920,435.888 345.253 M454.671 344.673 C 452.710 347.473,452.544 346.669,454.292 342.833 C 454.988 341.305,455.728 340.566,455.936 341.191 C 456.144 341.815,455.575 343.382,454.671 344.673 M310.020 345.457 C 312.603 347.689,314.950 349.281,315.235 348.996 C 315.990 348.241,308.207 341.330,306.644 341.367 C 305.918 341.384,307.437 343.225,310.020 345.457 M26.618 343.424 C 26.212 344.080,28.417 344.440,32.558 344.394 C 37.205 344.343,38.529 344.057,37.056 343.424 C 34.136 342.169,27.393 342.169,26.618 343.424 M83.507 343.329 C 86.992 345.301,90.514 345.797,88.266 344.000 C 87.152 343.109,85.273 342.394,84.091 342.412 C 82.374 342.437,82.257 342.622,83.507 343.329 M26.618 346.555 C 26.223 347.194,27.845 347.599,30.793 347.599 C 33.741 347.599,35.363 347.194,34.969 346.555 C 34.614 345.981,32.735 345.511,30.793 345.511 C 28.852 345.511,26.973 345.981,26.618 346.555 M294.885 348.210 C 299.193 351.819,301.670 353.148,301.670 351.849 C 301.670 350.653,294.417 345.492,292.816 345.549 C 292.232 345.570,293.163 346.767,294.885 348.210 M29.228 349.687 C 30.089 350.243,32.437 350.699,34.447 350.699 C 37.186 350.699,37.709 350.446,36.534 349.687 C 35.673 349.130,33.325 348.675,31.315 348.675 C 28.576 348.675,28.053 348.928,29.228 349.687 M13.160 351.338 C 12.278 353.635,12.367 356.997,13.309 356.978 C 15.595 356.931,16.775 355.040,16.127 352.458 C 15.344 349.339,14.106 348.872,13.160 351.338 M471.709 352.847 C 475.213 354.586,478.079 356.450,478.079 356.989 C 478.079 357.529,479.371 358.672,480.950 359.528 L 483.820 361.086 481.020 361.127 C 479.114 361.156,478.008 360.502,477.557 359.081 C 476.734 356.487,475.666 356.474,470.319 358.993 C 463.781 362.074,450.939 362.482,450.939 359.609 C 450.939 351.121,461.380 347.723,471.709 352.847 M396.068 354.963 C 398.195 357.042,395.647 356.976,392.341 354.866 L 388.831 352.625 391.962 353.318 C 393.685 353.698,395.532 354.439,396.068 354.963 M423.476 356.034 C 425.882 356.552,430.814 356.718,434.437 356.405 L 441.023 355.835 433.874 359.024 C 425.385 362.810,424.583 362.867,419.967 360.014 C 418.010 358.805,415.511 358.051,414.413 358.338 C 413.316 358.625,412.255 358.373,412.057 357.777 C 411.810 357.038,411.026 357.053,409.586 357.823 C 407.373 359.008,403.889 358.939,403.938 357.711 C 403.954 357.317,403.967 356.241,403.967 355.322 C 403.967 353.535,413.466 353.882,423.476 356.034 M387.000 357.984 C 390.303 359.102,394.415 360.186,396.138 360.392 L 399.269 360.766 396.138 362.113 C 394.415 362.854,392.067 363.408,390.919 363.345 C 369.460 362.158,364.071 361.609,366.692 360.878 C 368.294 360.430,369.323 359.608,368.979 359.051 C 368.635 358.494,369.320 358.038,370.502 358.038 C 371.684 358.038,372.651 357.568,372.651 356.994 C 372.651 355.267,380.595 355.815,387.000 357.984 M344.436 361.169 C 344.436 362.561,344.323 362.561,343.424 361.169 C 342.867 360.308,342.412 358.899,342.412 358.038 C 342.412 356.646,342.524 356.646,343.424 358.038 C 343.980 358.899,344.436 360.308,344.436 361.169 M336.780 359.610 C 332.995 361.584,331.854 361.564,334.490 359.570 C 335.604 358.727,337.248 358.040,338.143 358.044 C 339.038 358.048,338.425 358.752,336.780 359.610 M224.043 363.975 C 233.490 367.051,234.302 368.476,226.608 368.476 C 219.898 368.476,215.565 366.824,214.154 363.727 C 212.652 360.431,213.205 360.445,224.043 363.975 M331.954 364.277 C 330.725 366.574,326.878 368.979,325.937 368.039 C 325.603 367.705,325.882 367.432,326.555 367.432 C 327.229 367.432,328.801 366.258,330.049 364.823 C 332.781 361.680,333.446 361.490,331.954 364.277 M453.027 370.564 C 453.642 371.712,455.033 372.651,456.119 372.651 C 459.143 372.651,461.548 378.422,460.888 384.095 C 460.585 386.700,460.601 388.270,460.925 387.585 C 461.248 386.899,462.187 386.597,463.011 386.914 C 464.036 387.307,464.548 386.711,464.630 385.028 C 464.736 382.879,464.818 382.832,465.273 384.656 C 465.560 385.804,466.250 387.030,466.806 387.381 C 471.752 390.502,442.174 399.744,420.512 401.846 C 391.746 404.637,342.183 404.187,339.103 401.107 C 338.444 400.448,338.421 395.496,339.037 387.152 C 339.848 376.160,340.041 375.236,340.317 381.002 L 340.643 387.787 341.251 381.566 C 341.970 374.202,342.277 374.037,355.950 373.657 C 360.830 373.522,363.648 373.123,362.213 372.770 C 360.778 372.418,367.354 371.869,376.827 371.550 C 391.687 371.050,390.433 370.979,367.692 371.028 C 353.196 371.060,341.335 370.740,341.335 370.317 C 341.336 369.895,356.250 369.418,374.478 369.258 C 392.706 369.098,417.585 368.857,429.765 368.722 C 450.973 368.486,451.957 368.564,453.027 370.564 M417.797 370.291 C 421.099 370.498,426.501 370.498,429.802 370.291 C 433.103 370.084,430.402 369.915,423.800 369.915 C 417.197 369.915,414.496 370.084,417.797 370.291 M224.948 375.344 C 222.077 377.918,218.319 380.437,216.597 380.941 C 213.472 381.856,213.473 381.858,217.518 381.952 C 219.936 382.008,222.979 381.175,225.067 379.885 C 229.346 377.240,230.228 377.702,231.081 383.034 C 232.263 390.426,240.408 391.425,249.166 385.252 C 254.180 381.718,254.166 381.708,255.143 389.850 C 255.971 396.754,256.265 396.972,273.048 403.109 C 285.958 407.830,288.010 408.308,291.448 407.396 C 294.991 406.455,295.558 406.619,298.167 409.343 C 301.373 412.689,303.234 413.099,304.168 410.666 C 305.093 408.255,304.982 408.018,303.083 408.357 C 301.879 408.572,300.916 407.336,299.865 404.228 C 298.078 398.944,297.856 398.903,292.797 402.923 C 286.244 408.131,285.353 407.489,284.142 396.686 C 283.108 387.463,281.848 386.974,272.949 392.342 C 261.971 398.963,258.873 397.766,258.873 386.908 C 258.873 377.394,255.173 375.986,246.098 382.046 C 237.026 388.104,236.470 387.895,233.820 377.425 C 231.867 369.707,231.365 369.589,224.948 375.344 M283.977 373.200 C 285.671 374.076,287.056 374.991,287.056 375.235 C 287.056 375.682,279.594 372.779,278.793 372.020 C 277.684 370.969,281.218 371.774,283.977 373.200 M419.917 372.376 C 422.661 372.592,426.889 372.589,429.311 372.370 C 431.734 372.151,429.489 371.975,424.322 371.978 C 419.154 371.981,417.172 372.160,419.917 372.376 M421.973 374.462 C 424.700 374.677,429.162 374.677,431.889 374.462 C 434.616 374.247,432.385 374.071,426.931 374.071 C 421.477 374.071,419.246 374.247,421.973 374.462 M332.704 388.601 C 332.485 391.024,332.309 388.779,332.312 383.612 C 332.315 378.445,332.494 376.463,332.710 379.207 C 332.926 381.951,332.923 386.179,332.704 388.601 M336.672 400.628 C 335.497 401.803,335.130 399.884,334.706 390.345 C 334.415 383.801,334.522 382.237,335.022 385.699 C 335.759 390.800,335.786 390.728,336.172 382.568 C 336.515 375.349,336.613 375.970,336.898 387.145 C 337.079 394.255,336.977 400.322,336.672 400.628 M52.570 377.349 C 52.239 378.210,50.990 378.914,49.793 378.914 C 47.656 378.914,47.654 378.887,49.644 377.382 C 52.266 375.399,53.322 375.387,52.570 377.349 M73.591 377.004 C 67.759 378.972,52.192 386.562,52.192 387.438 C 52.192 388.811,53.143 388.510,58.850 385.332 C 61.790 383.695,67.249 381.273,70.981 379.951 C 77.853 377.515,81.056 375.712,78.236 375.865 C 77.403 375.911,75.313 376.423,73.591 377.004 M345.876 386.221 C 345.876 391.101,346.056 393.098,346.276 390.658 C 346.496 388.218,346.496 384.225,346.276 381.785 C 346.056 379.345,345.876 381.341,345.876 386.221 M262.484 380.213 C 261.417 382.994,262.455 393.862,263.831 394.316 C 264.748 394.618,265.136 393.323,265.136 389.962 C 265.136 387.330,265.551 385.177,266.060 385.177 C 267.829 385.177,273.996 388.228,272.309 388.268 C 270.306 388.316,267.914 390.903,268.433 392.460 C 268.828 393.644,276.618 388.794,276.618 387.363 C 276.618 386.884,274.486 385.896,271.881 385.166 C 269.252 384.430,266.239 382.689,265.110 381.255 C 263.509 379.219,262.950 378.998,262.484 380.213 M72.127 384.083 C 67.304 385.761,62.623 387.869,61.726 388.766 C 59.380 391.112,61.583 390.786,67.923 387.849 C 71.719 386.090,74.392 385.494,76.553 385.926 C 79.113 386.438,79.568 386.253,79.052 384.909 C 78.581 383.684,79.400 383.005,82.269 382.242 C 85.320 381.430,85.576 381.198,83.507 381.124 C 82.072 381.072,76.951 382.404,72.127 384.083 M89.208 383.506 C 79.708 386.482,79.913 387.848,89.509 385.521 C 94.444 384.324,91.572 387.090,85.630 389.256 C 82.204 390.505,79.086 392.038,78.700 392.663 C 78.274 393.351,78.570 393.560,79.448 393.192 C 80.245 392.858,84.232 391.550,88.308 390.285 C 95.269 388.123,95.711 387.804,95.614 385.017 C 95.500 381.709,95.183 381.634,89.208 383.506 M329.646 395.094 C 329.607 397.404,329.373 396.993,328.757 393.528 C 328.297 390.945,327.945 387.422,327.974 385.699 C 328.014 383.390,328.247 383.800,328.863 387.265 C 329.323 389.849,329.675 393.372,329.646 395.094 M98.121 389.824 C 88.731 392.639,84.095 394.464,84.728 395.097 C 85.114 395.483,105.007 389.515,106.385 388.598 C 108.299 387.326,104.650 387.867,98.121 389.824 M284.969 389.335 C 284.969 392.307,287.665 401.134,288.692 401.528 C 289.367 401.787,291.689 400.798,293.852 399.329 C 298.857 395.933,298.972 395.947,301.670 400.313 C 304.453 404.816,304.474 404.816,305.009 400.236 C 305.393 396.949,305.073 396.314,302.313 394.887 C 297.304 392.296,284.969 388.348,284.969 389.335 M27.709 396.736 C 28.038 397.268,29.168 397.704,30.221 397.704 C 31.274 397.704,32.417 398.436,32.760 399.331 C 33.726 401.849,25.852 397.090,21.700 392.647 L 18.267 388.972 22.689 392.370 C 25.121 394.239,27.380 396.204,27.709 396.736 M46.070 390.885 C 47.339 392.154,54.280 394.487,54.280 393.644 C 54.280 393.119,52.800 392.173,50.992 391.543 C 47.580 390.353,45.223 390.038,46.070 390.885 M98.904 393.772 C 90.195 396.862,87.621 398.645,91.597 398.834 C 92.602 398.882,94.598 399.080,96.033 399.274 C 98.923 399.665,119.219 393.429,117.224 392.763 C 116.536 392.534,111.856 393.764,106.825 395.499 C 101.794 397.233,97.495 398.470,97.273 398.247 C 96.188 397.162,98.761 395.573,104.917 393.524 C 108.643 392.285,111.691 391.074,111.691 390.833 C 111.691 389.774,107.383 390.764,98.904 393.772 M280.793 397.182 C 280.793 402.287,280.653 402.436,277.460 400.727 C 276.101 400.000,275.069 399.947,274.658 400.585 C 274.301 401.140,273.090 401.266,271.968 400.865 C 269.689 400.051,269.287 400.588,276.618 394.663 C 280.346 391.650,280.793 391.920,280.793 397.182 M291.754 396.660 C 291.754 397.425,291.166 398.247,290.449 398.486 C 289.673 398.745,289.144 398.005,289.144 396.660 C 289.144 395.314,289.673 394.574,290.449 394.833 C 291.166 395.072,291.754 395.894,291.754 396.660 M147.358 397.861 C 147.550 399.211,148.553 400.454,149.615 400.656 C 151.095 400.938,151.448 400.472,151.181 398.590 C 150.989 397.240,149.985 395.997,148.924 395.795 C 147.444 395.512,147.090 395.979,147.358 397.861 M109.603 400.139 C 109.603 402.344,110.763 402.934,112.872 401.805 C 115.632 400.329,115.291 398.747,112.213 398.747 C 110.734 398.747,109.603 399.350,109.603 400.139 M177.714 399.503 C 175.848 399.734,174.322 400.369,174.322 400.914 C 174.322 402.079,182.712 401.011,184.186 399.658 C 185.195 398.731,184.135 398.706,177.714 399.503 M63.413 400.919 C 61.010 402.319,61.082 403.967,63.547 403.967 C 65.725 403.967,68.217 401.550,67.145 400.478 C 66.237 399.571,65.598 399.646,63.413 400.919 M120.825 402.476 C 119.246 403.332,117.954 404.229,117.954 404.468 C 117.954 405.111,124.578 402.785,125.731 401.736 C 127.356 400.259,123.970 400.769,120.825 402.476 M190.501 403.954 C 188.713 404.733,188.676 404.874,190.240 404.937 C 191.245 404.977,192.067 405.715,192.067 406.576 C 192.067 408.301,195.447 408.561,198.852 407.098 C 200.702 406.303,200.613 406.193,198.069 406.128 C 196.428 406.086,195.310 405.522,195.459 404.811 C 195.792 403.226,193.202 402.778,190.501 403.954 M364.040 406.822 C 361.313 407.037,356.850 407.037,354.123 406.822 C 351.396 406.607,353.627 406.431,359.081 406.431 C 364.535 406.431,366.767 406.607,364.040 406.822 M62.630 407.610 C 62.630 407.875,64.392 409.022,66.545 410.159 C 69.774 411.863,70.048 412.233,68.111 412.271 C 58.365 412.463,72.876 417.865,84.924 418.531 C 85.416 418.558,85.548 419.285,85.218 420.146 C 84.809 421.211,85.274 421.712,86.672 421.712 C 87.802 421.712,88.727 421.018,88.727 420.170 C 88.727 417.900,83.897 415.131,80.927 415.699 C 79.511 415.970,78.587 415.809,78.876 415.343 C 79.164 414.876,78.018 413.779,76.329 412.906 C 71.950 410.641,62.630 407.039,62.630 407.610 M204.344 409.924 C 205.643 410.174,207.521 410.164,208.519 409.903 C 209.517 409.642,208.455 409.437,206.159 409.449 C 203.862 409.461,203.046 409.674,204.344 409.924 M93.646 410.878 C 92.140 412.383,92.981 413.113,96.046 412.959 C 97.775 412.872,99.198 412.340,99.210 411.776 C 99.234 410.550,94.705 409.818,93.646 410.878 M111.691 412.718 C 111.691 414.198,115.281 415.686,116.328 414.639 C 117.811 413.156,116.678 411.273,114.301 411.273 C 112.775 411.273,111.691 411.873,111.691 412.718 M191.023 414.960 C 186.717 416.362,182.137 417.515,180.846 417.523 C 179.554 417.530,178.497 417.988,178.497 418.541 C 178.497 419.093,176.501 420.503,174.061 421.674 C 171.174 423.060,170.536 423.648,172.234 423.358 C 175.089 422.870,201.577 413.593,202.365 412.805 C 203.567 411.604,198.197 412.624,191.023 414.960 M406.576 413.361 C 404.796 414.126,404.950 414.258,407.620 414.258 C 409.342 414.258,411.691 413.855,412.839 413.361 C 414.619 412.596,414.465 412.464,411.795 412.464 C 410.073 412.464,407.724 412.868,406.576 413.361 M343.175 414.099 C 344.473 414.349,346.352 414.340,347.350 414.078 C 348.348 413.817,347.286 413.613,344.990 413.624 C 342.693 413.636,341.877 413.850,343.175 414.099 M352.035 414.109 C 353.614 414.348,356.198 414.348,357.777 414.109 C 359.355 413.870,358.064 413.674,354.906 413.674 C 351.748 413.674,350.457 413.870,352.035 414.109 M131.002 416.493 C 130.066 418.007,131.356 419.624,133.499 419.624 C 135.903 419.624,136.736 418.734,136.038 416.913 C 135.392 415.229,131.960 414.943,131.002 416.493 M193.111 418.484 C 180.802 422.583,170.585 427.414,169.779 429.515 C 169.406 430.486,169.453 431.120,169.884 430.922 C 170.315 430.725,175.130 428.395,180.585 425.745 C 186.039 423.094,193.672 419.890,197.547 418.624 C 204.260 416.431,206.146 415.401,203.288 415.489 C 202.570 415.511,197.991 416.858,193.111 418.484 M97.230 416.935 C 98.142 417.926,108.502 420.640,111.430 420.656 C 114.212 420.670,114.542 419.097,111.965 418.108 C 109.326 417.095,96.433 416.069,97.230 416.935 M198.852 421.109 C 194.833 422.449,189.901 424.237,187.891 425.084 C 185.882 425.930,183.299 426.976,182.150 427.407 C 178.426 428.805,189.756 431.240,193.894 429.931 C 195.759 429.340,197.286 428.435,197.286 427.920 C 197.286 427.397,196.056 427.450,194.502 428.041 C 192.426 428.831,191.501 428.758,190.865 427.754 C 189.450 425.525,189.660 425.395,198.765 422.841 C 208.217 420.190,211.829 418.590,208.246 418.643 C 207.098 418.660,202.871 419.770,198.852 421.109 M98.121 420.591 C 98.121 421.009,101.917 422.672,106.557 424.287 C 112.035 426.194,114.518 427.518,113.639 428.061 C 112.671 428.660,113.119 429.216,115.206 430.010 C 119.191 431.525,122.406 428.516,119.031 426.430 C 116.901 425.113,98.121 419.869,98.121 420.591 M205.637 423.515 C 199.856 426.239,205.905 426.586,212.505 423.909 L 217.641 421.826 213.466 421.810 C 211.169 421.801,207.646 422.568,205.637 423.515 M222.860 423.502 C 217.860 424.709,197.732 431.391,196.981 432.092 C 194.353 434.547,199.511 435.352,202.383 432.935 C 204.281 431.338,209.875 429.131,217.176 427.099 C 230.114 423.498,234.579 420.673,222.860 423.502 M141.441 424.843 C 140.403 426.522,141.884 427.975,144.634 427.975 C 147.494 427.975,148.137 425.433,145.530 424.433 C 143.202 423.540,142.183 423.642,141.441 424.843 M54.280 426.931 C 56.289 428.031,58.638 428.931,59.499 428.931 C 60.360 428.931,59.421 428.031,57.411 426.931 C 55.402 425.831,53.053 424.931,52.192 424.931 C 51.331 424.931,52.270 425.831,54.280 426.931 M230.167 425.553 C 224.947 426.723,218.124 429.281,217.490 430.307 C 217.033 431.046,217.602 431.224,219.138 430.822 C 221.200 430.283,221.407 430.516,220.847 432.745 C 220.096 435.740,219.870 435.692,225.443 433.725 C 234.224 430.628,240.084 429.150,240.084 430.033 C 240.084 430.529,236.443 432.155,231.994 433.647 C 224.160 436.273,219.676 438.365,221.813 438.397 C 222.385 438.406,226.378 437.273,230.685 435.880 C 234.993 434.487,241.336 432.521,244.781 431.511 L 251.044 429.675 245.403 428.651 C 241.249 427.898,238.498 427.985,234.965 428.983 C 228.820 430.719,227.153 430.829,226.534 429.541 C 226.259 428.967,228.842 427.712,232.275 426.754 C 237.998 425.156,236.288 424.182,230.167 425.553 M285.899 428.758 C 286.452 429.763,287.627 431.524,288.512 432.672 C 290.676 435.480,290.668 432.809,288.502 429.504 C 286.577 426.566,284.342 425.925,285.899 428.758 M151.823 432.241 C 151.437 432.865,151.566 433.820,152.108 434.363 C 153.419 435.674,156.576 434.400,156.576 432.561 C 156.576 430.847,152.839 430.596,151.823 432.241 M244.781 432.885 C 238.930 434.716,239.900 436.007,245.884 434.355 C 247.995 433.772,251.076 433.566,252.732 433.897 C 255.061 434.363,255.741 434.115,255.741 432.803 C 255.741 430.643,251.852 430.672,244.781 432.885 M74.113 435.137 C 74.113 436.084,78.748 438.413,80.634 438.413 C 82.287 438.413,80.521 437.006,76.983 435.502 C 75.404 434.832,74.113 434.667,74.113 435.137 M118.998 436.138 C 118.998 436.927,157.546 446.814,160.491 446.779 C 161.208 446.771,161.678 447.312,161.534 447.983 C 161.391 448.653,162.918 449.681,164.927 450.267 C 166.936 450.853,168.874 451.765,169.234 452.293 C 170.127 453.605,193.869 459.320,197.786 459.166 C 200.402 459.063,200.049 458.813,195.720 457.701 C 191.101 456.513,190.891 456.348,193.894 456.259 C 195.759 456.204,197.286 455.707,197.286 455.155 C 197.286 453.990,196.805 453.858,166.493 446.690 C 153.862 443.703,143.023 440.641,142.406 439.886 C 141.789 439.131,140.349 438.758,139.206 439.057 C 138.063 439.355,133.323 438.628,128.672 437.441 C 119.056 434.986,118.998 434.978,118.998 436.138 M162.839 439.457 C 162.839 440.849,163.535 441.545,164.927 441.545 C 167.404 441.545,167.729 438.911,165.363 438.003 C 162.968 437.084,162.839 437.159,162.839 439.457 M236.430 440.011 C 232.755 443.024,233.662 443.210,240.680 440.884 C 247.652 438.574,248.700 437.361,243.685 437.407 C 240.890 437.433,238.553 438.272,236.430 440.011 M253.914 439.105 C 253.197 439.394,252.610 440.113,252.610 440.701 C 252.610 441.921,257.784 440.908,259.342 439.383 C 260.390 438.358,256.286 438.148,253.914 439.105 M213.946 443.709 C 212.889 445.685,213.044 445.845,215.727 445.536 C 217.524 445.330,218.802 444.488,219.013 443.372 C 219.515 440.727,215.395 441.002,213.946 443.709 M253.653 444.231 C 251.061 445.788,251.068 445.794,254.697 445.118 C 259.747 444.177,262.337 442.650,258.873 442.657 C 257.437 442.660,255.089 443.368,253.653 444.231 M21.921 444.275 C 27.728 445.009,58.172 445.144,57.051 444.431 C 56.388 444.010,47.625 443.728,37.578 443.805 C 27.531 443.882,20.485 444.094,21.921 444.275 M203.549 445.198 C 203.549 446.059,203.746 446.764,203.986 446.764 C 204.226 446.764,205.165 447.049,206.073 447.398 C 207.257 447.852,207.724 447.409,207.724 445.832 C 207.724 444.328,207.064 443.633,205.637 443.633 C 204.477 443.633,203.549 444.328,203.549 445.198 M261.439 445.790 C 260.364 447.529,261.644 448.125,264.772 447.340 C 267.013 446.777,267.308 446.413,266.125 445.665 C 264.101 444.384,262.278 444.433,261.439 445.790 M50.626 447.808 L 36.013 448.420 52.515 448.636 C 63.303 448.777,68.793 448.490,68.372 447.808 C 68.017 447.234,67.167 446.861,66.483 446.980 C 65.800 447.099,58.664 447.471,50.626 447.808 M226.477 448.374 C 225.222 449.886,225.405 450.035,228.139 449.723 C 229.828 449.531,231.118 448.904,231.005 448.330 C 230.656 446.558,227.962 446.585,226.477 448.374 M70.446 448.873 C 70.067 449.486,71.823 449.898,74.834 449.900 C 80.275 449.906,105.683 453.443,109.081 454.669 C 110.603 455.218,110.876 455.102,110.089 454.241 C 107.944 451.894,71.619 446.975,70.446 448.873 M250.522 449.834 C 250.522 452.254,252.396 453.659,253.779 452.276 C 255.089 450.965,253.815 447.808,251.976 447.808 C 251.176 447.808,250.522 448.720,250.522 449.834 M113.155 451.819 C 113.566 452.484,114.995 453.027,116.331 453.027 C 117.666 453.027,120.105 453.729,121.749 454.586 C 125.134 456.352,129.896 456.703,128.914 455.115 C 128.560 454.541,127.162 454.071,125.808 454.071 C 124.455 454.071,123.191 453.608,122.999 453.041 C 122.808 452.475,120.347 451.697,117.530 451.311 C 113.774 450.798,112.608 450.933,113.155 451.819 M212.569 455.615 C 221.839 457.882,226.077 458.492,224.948 457.395 C 223.656 456.141,213.838 454.030,210.022 454.186 C 208.068 454.266,208.850 454.705,212.569 455.615 M88.582 457.250 C 97.976 457.755,109.166 458.655,113.449 459.251 C 124.093 460.731,129.165 460.689,127.608 459.132 C 126.109 457.633,118.889 457.132,92.380 456.684 L 71.503 456.332 88.582 457.250 M54.572 457.971 C 57.317 458.187,61.544 458.184,63.967 457.965 C 66.389 457.746,64.144 457.570,58.977 457.573 C 53.810 457.576,51.828 457.755,54.572 457.971 M240.605 458.246 L 243.737 459.043 240.084 459.256 L 236.430 459.470 239.562 460.413 C 243.851 461.704,257.137 462.696,253.653 461.465 C 252.218 460.957,249.400 460.448,247.390 460.334 C 244.092 460.146,243.991 460.055,246.347 459.399 C 249.870 458.418,246.783 457.149,241.303 457.326 L 237.474 457.450 240.605 458.246 M214.599 460.298 C 215.223 460.934,217.572 461.684,219.819 461.965 C 224.280 462.523,222.328 461.268,216.597 459.893 C 214.313 459.346,213.773 459.455,214.599 460.298 M233.082 462.351 C 237.245 463.719,250.639 464.815,247.760 463.552 C 246.528 463.012,242.066 462.305,237.844 461.981 C 232.469 461.569,231.041 461.680,233.082 462.351 M112.735 463.910 C 128.701 465.470,134.924 466.512,135.741 467.760 C 136.461 468.860,150.597 471.856,154.296 471.692 C 156.348 471.601,155.701 471.195,151.879 470.173 L 146.660 468.778 152.923 469.372 C 156.959 469.755,158.815 469.608,158.142 468.959 C 156.520 467.393,124.022 463.218,110.647 462.857 L 98.643 462.533 112.735 463.910 M213.155 462.981 C 214.420 464.246,238.257 468.642,246.424 469.115 C 252.213 469.451,253.970 469.333,251.566 468.771 C 248.433 468.038,248.284 467.880,250.522 467.667 C 251.957 467.530,248.199 466.536,242.171 465.458 C 230.997 463.460,225.309 463.352,233.820 465.299 C 242.426 467.268,235.248 466.629,224.948 464.509 C 214.337 462.326,212.227 462.053,213.155 462.981 M162.926 465.927 C 164.015 466.864,171.182 467.429,170.630 466.535 C 170.296 465.995,168.328 465.553,166.257 465.553 C 164.186 465.553,162.687 465.722,162.926 465.927 M272.965 467.641 C 271.925 468.789,271.406 469.729,271.811 469.729 C 272.894 469.729,278.706 466.626,278.706 466.048 C 278.706 464.681,274.616 465.816,272.965 467.641 M228.065 472.987 C 228.718 473.617,226.807 473.726,222.846 473.287 C 219.409 472.906,216.127 472.130,215.553 471.564 C 214.866 470.887,216.652 470.784,220.772 471.264 C 224.217 471.666,227.499 472.441,228.065 472.987 M178.497 472.760 C 180.524 473.899,198.526 477.187,199.176 476.537 C 199.902 475.811,197.779 475.218,188.037 473.424 C 178.243 471.620,176.218 471.479,178.497 472.760 M249.229 475.665 C 248.231 475.926,246.352 475.936,245.054 475.686 C 243.755 475.436,244.572 475.223,246.868 475.211 C 249.165 475.199,250.227 475.404,249.229 475.665 M208.246 477.853 C 209.439 479.095,227.506 482.654,228.347 481.813 C 229.115 481.045,227.076 480.439,219.207 479.097 C 215.475 478.461,211.247 477.676,209.812 477.353 C 208.020 476.950,207.529 477.106,208.246 477.853 M200.418 482.110 C 201.279 482.652,204.802 483.382,208.246 483.733 C 216.088 484.531,212.818 482.821,204.593 481.822 C 200.844 481.366,199.395 481.466,200.418 482.110 " stroke="none" fill="#000000" fill-rule="evenodd"></path></g></svg>